100-italicVF.ufo
<glyph name="numbersign" format="2">
  <advance width="537"/>
  <unicode hex="0023"/>
  <outline>
    <contour>
      <point x="171" y="454" type="line"/>
      <point x="175" y="465" type="line"/>
      <point x="609" y="465" type="line"/>
      <point x="605" y="454" type="line"/>
      <point x="497" y="454" type="line"/>
      <point x="493" y="454" type="line"/>
      <point x="298" y="454" type="line"/>
      <point x="295" y="454" type="line"/>
    </contour>
    <contour>
      <point x="60" y="240" type="line"/>
      <point x="64" y="251" type="line"/>
      <point x="176" y="251" type="line"/>
      <point x="181" y="251" type="line"/>
      <point x="372" y="251" type="line"/>
      <point x="378" y="251" type="line"/>
      <point x="498" y="251" type="line"/>
      <point x="495" y="240" type="line"/>
    </contour>
    <contour>
      <point x="628" y="699" type="line"/>
      <point x="639" y="699" type="line"/>
      <point x="237" y="0" type="line"/>
      <point x="226" y="0" type="line"/>
      <point x="366" y="244" type="line"/>
      <point x="368" y="246" type="line"/>
      <point x="488" y="458" type="line"/>
      <point x="490" y="462" type="line"/>
    </contour>
    <contour>
      <point x="430" y="699" type="line"/>
      <point x="441" y="699" type="line"/>
      <point x="304" y="462" type="line"/>
      <point x="302" y="458" type="line"/>
      <point x="180" y="244" type="line"/>
      <point x="180" y="243" type="line"/>
      <point x="40" y="1" type="line"/>
      <point x="29" y="0" type="line"/>
    </contour>
  </outline>
</glyph>
<glyph name="ampersand" format="2">
  <advance width="635"/>
  <unicode hex="0026"/>
  <outline>
    <contour>
      <point x="269" y="427" type="line" smooth="yes"/>
      <point x="246" y="474"/>
      <point x="235" y="526"/>
      <point x="252" y="577" type="curve" smooth="yes"/>
      <point x="277" y="653"/>
      <point x="354" y="713"/>
      <point x="436" y="710" type="curve" smooth="yes"/>
      <point x="511" y="708"/>
      <point x="546" y="642"/>
      <point x="525" y="574" type="curve" smooth="yes"/>
      <point x="499" y="489"/>
      <point x="408" y="439"/>
      <point x="335" y="400" type="curve" smooth="yes"/>
      <point x="232" y="344"/>
      <point x="104" y="296"/>
      <point x="66" y="173" type="curve" smooth="yes"/>
      <point x="36" y="76"/>
      <point x="95" y="2"/>
      <point x="195" y="1" type="curve" smooth="yes"/>
      <point x="380" y="-1"/>
      <point x="514" y="199"/>
      <point x="631" y="315" type="curve"/>
      <point x="638" y="309" type="line"/>
      <point x="518" y="190"/>
      <point x="383" y="-10"/>
      <point x="194" y="-9" type="curve" smooth="yes"/>
      <point x="89" y="-8"/>
      <point x="25" y="70"/>
      <point x="56" y="173" type="curve" smooth="yes"/>
      <point x="94" y="299"/>
      <point x="222" y="351"/>
      <point x="329" y="407" type="curve" smooth="yes"/>
      <point x="399" y="444"/>
      <point x="489" y="493"/>
      <point x="515" y="574" type="curve" smooth="yes"/>
      <point x="535" y="637"/>
      <point x="504" y="697"/>
      <point x="435" y="700" type="curve" smooth="yes"/>
      <point x="360" y="703"/>
      <point x="285" y="646"/>
      <point x="262" y="576" type="curve" smooth="yes"/>
      <point x="246" y="527"/>
      <point x="256" y="480"/>
      <point x="278" y="435" type="curve" smooth="yes"/>
      <point x="504" y="0" type="line"/>
      <point x="492" y="0" type="line"/>
    </contour>
  </outline>
</glyph>
<glyph name="quotesingle" format="2">
  <advance width="209"/>
  <unicode hex="0027"/>
  <outline>
    <contour>
      <point x="314" y="699" type="line"/>
      <point x="327" y="699" type="line"/>
      <point x="185" y="421" type="line"/>
      <point x="178" y="421" type="line"/>
    </contour>
  </outline>
</glyph>
<glyph name="zero" format="2">
  <advance width="517"/>
  <unicode hex="0030"/>
  <outline>
    <contour>
      <point x="128" y="350" type="curve" smooth="yes"/>
      <point x="95" y="254"/>
      <point x="34" y="2"/>
      <point x="203" y="0" type="curve" smooth="yes"/>
      <point x="370" y="-2"/>
      <point x="475" y="217"/>
      <point x="520" y="350" type="curve" smooth="yes"/>
      <point x="553" y="446"/>
      <point x="614" y="697"/>
      <point x="445" y="699" type="curve" smooth="yes"/>
      <point x="278" y="701"/>
      <point x="173" y="483"/>
    </contour>
    <contour>
      <point x="117" y="350" type="curve" smooth="yes"/>
      <point x="164" y="489"/>
      <point x="272" y="711"/>
      <point x="446" y="709" type="curve" smooth="yes"/>
      <point x="624" y="707"/>
      <point x="566" y="454"/>
      <point x="531" y="350" type="curve" smooth="yes"/>
      <point x="484" y="211"/>
      <point x="376" y="-11"/>
      <point x="202" y="-9" type="curve" smooth="yes"/>
      <point x="24" y="-7"/>
      <point x="82" y="246"/>
    </contour>
  </outline>
</glyph>
<glyph name="two" format="2">
  <advance width="483"/>
  <unicode hex="0032"/>
  <outline>
    <contour>
      <point x="-11" y="0" type="line"/>
      <point x="392" y="334" type="line" smooth="yes"/>
      <point x="452" y="385"/>
      <point x="516" y="441"/>
      <point x="540" y="519" type="curve" smooth="yes"/>
      <point x="568" y="606"/>
      <point x="530" y="699"/>
      <point x="429" y="700" type="curve" smooth="yes"/>
      <point x="295" y="702"/>
      <point x="212" y="570"/>
      <point x="167" y="461" type="curve"/>
      <point x="157" y="461" type="line"/>
      <point x="203" y="576"/>
      <point x="290" y="712"/>
      <point x="430" y="710" type="curve" smooth="yes"/>
      <point x="536" y="708"/>
      <point x="578" y="612"/>
      <point x="550" y="519" type="curve" smooth="yes"/>
      <point x="526" y="440"/>
      <point x="462" y="380"/>
      <point x="401" y="328" type="curve" smooth="yes"/>
      <point x="17" y="11" type="line"/>
      <point x="420" y="10" type="line"/>
      <point x="417" y="0" type="line"/>
    </contour>
  </outline>
</glyph>
<glyph name="three" format="2">
  <advance width="518"/>
  <unicode hex="0033"/>
  <outline>
    <contour>
      <point x="310" y="363" type="curve"/>
      <point x="312" y="371" type="line"/>
      <point x="412" y="382"/>
      <point x="525" y="429"/>
      <point x="559" y="533" type="curve" smooth="yes"/>
      <point x="586" y="617"/>
      <point x="539" y="697"/>
      <point x="448" y="699" type="curve" smooth="yes"/>
      <point x="341" y="701"/>
      <point x="267" y="616"/>
      <point x="225" y="527" type="curve"/>
      <point x="215" y="527" type="line"/>
      <point x="257" y="623"/>
      <point x="336" y="710"/>
      <point x="449" y="709" type="curve" smooth="yes"/>
      <point x="546" y="708"/>
      <point x="598" y="623"/>
      <point x="569" y="533" type="curve" smooth="yes"/>
      <point x="534" y="422"/>
      <point x="417" y="373"/>
    </contour>
    <contour>
      <point x="225" y="-9" type="curve" smooth="yes"/>
      <point x="107" y="-9"/>
      <point x="64" y="79"/>
      <point x="85" y="185" type="curve"/>
      <point x="94" y="185" type="line"/>
      <point x="74" y="83"/>
      <point x="112" y="2"/>
      <point x="226" y="1" type="curve" smooth="yes"/>
      <point x="330" y="0"/>
      <point x="438" y="74"/>
      <point x="468" y="175" type="curve" smooth="yes"/>
      <point x="501" y="288"/>
      <point x="408" y="347"/>
      <point x="309" y="359" type="curve"/>
      <point x="311" y="367" type="line"/>
      <point x="416" y="356"/>
      <point x="513" y="293"/>
      <point x="478" y="175" type="curve" smooth="yes"/>
      <point x="447" y="68"/>
      <point x="335" y="-9"/>
    </contour>
  </outline>
</glyph>
<glyph name="five" format="2">
  <advance width="524"/>
  <unicode hex="0035"/>
  <outline>
    <contour>
      <point x="497" y="230" type="curve" smooth="yes"/>
      <point x="461" y="105"/>
      <point x="348" y="-10"/>
      <point x="212" y="-9" type="curve" smooth="yes"/>
      <point x="119" y="-9"/>
      <point x="74" y="51"/>
      <point x="60" y="137" type="curve"/>
      <point x="69" y="142" type="line"/>
      <point x="83" y="60"/>
      <point x="123" y="2"/>
      <point x="213" y="1" type="curve" smooth="yes"/>
      <point x="343" y="0"/>
      <point x="452" y="111"/>
      <point x="488" y="230" type="curve" smooth="yes"/>
      <point x="516" y="322"/>
      <point x="485" y="432"/>
      <point x="374" y="435" type="curve" smooth="yes"/>
      <point x="286" y="437"/>
      <point x="209" y="383"/>
      <point x="145" y="329" type="curve"/>
      <point x="348" y="700" type="line"/>
      <point x="658" y="700" type="line"/>
      <point x="655" y="690" type="line"/>
      <point x="352" y="689" type="line"/>
      <point x="171" y="360" type="line"/>
      <point x="228" y="408"/>
      <point x="298" y="447"/>
      <point x="375" y="445" type="curve" smooth="yes"/>
      <point x="493" y="442"/>
      <point x="526" y="328"/>
    </contour>
  </outline>
</glyph>
<glyph name="colon" format="2">
  <advance width="282"/>
  <unicode hex="003A"/>
  <outline>
    <contour>
      <point x="57" y="1" type="curve" smooth="yes"/>
      <point x="57" y="7"/>
      <point x="62" y="12"/>
      <point x="68" y="12" type="curve" smooth="yes"/>
      <point x="74" y="12"/>
      <point x="79" y="7"/>
      <point x="79" y="1" type="curve" smooth="yes"/>
      <point x="79" y="-5"/>
      <point x="74" y="-10"/>
      <point x="68" y="-10" type="curve" smooth="yes"/>
      <point x="62" y="-10"/>
      <point x="57" y="-5"/>
    </contour>
    <contour>
      <point x="176" y="349" type="curve" smooth="yes"/>
      <point x="176" y="355"/>
      <point x="181" y="360"/>
      <point x="187" y="360" type="curve" smooth="yes"/>
      <point x="193" y="360"/>
      <point x="198" y="355"/>
      <point x="198" y="349" type="curve" smooth="yes"/>
      <point x="198" y="343"/>
      <point x="193" y="338"/>
      <point x="187" y="338" type="curve" smooth="yes"/>
      <point x="181" y="338"/>
      <point x="176" y="343"/>
    </contour>
  </outline>
</glyph>
<glyph name="equal" format="2">
  <advance width="578"/>
  <unicode hex="003D"/>
  <outline>
    <contour>
      <point x="70" y="185" type="line"/>
      <point x="73" y="195" type="line"/>
      <point x="530" y="195" type="line"/>
      <point x="527" y="185" type="line"/>
    </contour>
    <contour>
      <point x="113" y="310" type="line"/>
      <point x="116" y="320" type="line"/>
      <point x="573" y="320" type="line"/>
      <point x="569" y="310" type="line"/>
    </contour>
  </outline>
</glyph>
<glyph name="A" format="2">
  <advance width="564"/>
  <unicode hex="0041"/>
  <outline>
    <contour>
      <point x="160" y="272" type="line"/>
      <point x="163" y="282" type="line"/>
      <point x="486" y="282" type="line"/>
      <point x="483" y="272" type="line"/>
    </contour>
    <contour>
      <point x="465" y="688" type="line"/>
      <point x="169" y="277" type="line"/>
      <point x="167" y="273" type="line"/>
      <point x="-30" y="0" type="line"/>
      <point x="-42" y="0" type="line"/>
      <point x="473" y="715" type="line"/>
      <point x="496" y="0" type="line"/>
      <point x="484" y="0" type="line"/>
      <point x="478" y="273" type="line"/>
      <point x="478" y="276" type="line"/>
    </contour>
  </outline>
</glyph>
<glyph name="D" format="2">
  <advance width="597"/>
  <unicode hex="0044"/>
  <outline>
    <contour>
      <point x="270" y="699" type="line"/>
      <point x="281" y="699" type="line"/>
      <point x="40" y="0" type="line"/>
      <point x="29" y="0" type="line"/>
    </contour>
    <contour>
      <point x="182" y="0" type="curve" smooth="yes"/>
      <point x="35" y="0" type="line"/>
      <point x="39" y="11" type="line"/>
      <point x="184" y="11" type="line" smooth="yes"/>
      <point x="382" y="11"/>
      <point x="543" y="168"/>
      <point x="605" y="350" type="curve" smooth="yes"/>
      <point x="661" y="513"/>
      <point x="609" y="689"/>
      <point x="417" y="689" type="curve" smooth="yes"/>
      <point x="270" y="689" type="line"/>
      <point x="274" y="700" type="line"/>
      <point x="419" y="700" type="line" smooth="yes"/>
      <point x="617" y="700"/>
      <point x="673" y="518"/>
      <point x="616" y="350" type="curve" smooth="yes"/>
      <point x="553" y="163"/>
      <point x="386" y="0"/>
    </contour>
  </outline>
</glyph>
<glyph name="G" format="2">
  <advance width="719"/>
  <unicode hex="0047"/>
  <outline>
    <contour>
      <point x="454" y="330" type="line"/>
      <point x="457" y="340" type="line"/>
      <point x="730" y="339" type="line"/>
      <point x="660" y="169"/>
      <point x="511" y="-7"/>
      <point x="311" y="-7" type="curve" smooth="yes"/>
      <point x="113" y="-7"/>
      <point x="58" y="188"/>
      <point x="112" y="350" type="curve" smooth="yes"/>
      <point x="173" y="533"/>
      <point x="350" y="709"/>
      <point x="553" y="708" type="curve" smooth="yes"/>
      <point x="656" y="708"/>
      <point x="727" y="649"/>
      <point x="765" y="556" type="curve"/>
      <point x="754" y="550" type="line"/>
      <point x="723" y="642"/>
      <point x="650" y="697"/>
      <point x="552" y="697" type="curve" smooth="yes"/>
      <point x="354" y="698"/>
      <point x="184" y="528"/>
      <point x="123" y="350" type="curve" smooth="yes"/>
      <point x="70" y="194"/>
      <point x="120" y="4"/>
      <point x="313" y="4" type="curve" smooth="yes"/>
      <point x="504" y="4"/>
      <point x="646" y="169"/>
      <point x="717" y="329" type="curve"/>
    </contour>
  </outline>
</glyph>
<glyph name="N" format="2">
  <advance width="625"/>
  <unicode hex="004E"/>
  <outline>
    <contour>
      <point x="735" y="699" type="line"/>
      <point x="746" y="699" type="line"/>
      <point x="500" y="-15" type="line"/>
      <point x="236" y="678" type="line"/>
      <point x="2" y="0" type="line"/>
      <point x="-9" y="0" type="line"/>
      <point x="237" y="715" type="line"/>
      <point x="500" y="17" type="line"/>
    </contour>
  </outline>
</glyph>
<glyph name="Q" format="2">
  <advance width="725"/>
  <unicode hex="0051"/>
  <outline>
    <contour>
      <point x="123" y="350" type="curve" smooth="yes"/>
      <point x="70" y="194"/>
      <point x="117" y="4"/>
      <point x="310" y="3" type="curve" smooth="yes"/>
      <point x="507" y="2"/>
      <point x="676" y="174"/>
      <point x="736" y="350" type="curve" smooth="yes"/>
      <point x="789" y="506"/>
      <point x="742" y="696"/>
      <point x="549" y="697" type="curve" smooth="yes"/>
      <point x="352" y="698"/>
      <point x="183" y="526"/>
    </contour>
    <contour>
      <point x="112" y="350" type="curve" smooth="yes"/>
      <point x="173" y="532"/>
      <point x="348" y="709"/>
      <point x="550" y="708" type="curve" smooth="yes"/>
      <point x="748" y="707"/>
      <point x="801" y="512"/>
      <point x="747" y="350" type="curve" smooth="yes"/>
      <point x="686" y="168"/>
      <point x="511" y="-9"/>
      <point x="309" y="-8" type="curve" smooth="yes"/>
      <point x="111" y="-7"/>
      <point x="58" y="188"/>
    </contour>
    <contour>
      <point x="424" y="300" type="line"/>
      <point x="438" y="300" type="line"/>
      <point x="639" y="0" type="line"/>
      <point x="624" y="0" type="line"/>
    </contour>
  </outline>
</glyph>
<glyph name="W" format="2">
  <advance width="893"/>
  <unicode hex="0057"/>
  <outline>
    <contour>
      <point x="626" y="27" type="line"/>
      <point x="1047" y="699" type="line"/>
      <point x="1058" y="699" type="line"/>
      <point x="614" y="-16" type="line"/>
      <point x="622" y="676" type="line"/>
      <point x="200" y="-16" type="line"/>
      <point x="200" y="700" type="line"/>
      <point x="211" y="700" type="line"/>
      <point x="212" y="27" type="line"/>
      <point x="634" y="716" type="line"/>
    </contour>
  </outline>
</glyph>
<glyph name="Y" format="2">
  <advance width="477"/>
  <unicode hex="0059"/>
  <outline>
    <contour>
      <point x="636" y="698" type="line"/>
      <point x="649" y="698" type="line"/>
      <point x="276" y="266" type="line"/>
      <point x="184" y="0" type="line"/>
      <point x="173" y="0" type="line"/>
      <point x="266" y="267" type="line"/>
      <point x="199" y="700" type="line"/>
      <point x="211" y="700" type="line"/>
      <point x="274" y="282" type="line"/>
    </contour>
  </outline>
</glyph>
<glyph name="Z" format="2">
  <advance width="503"/>
  <unicode hex="005A"/>
  <outline>
    <contour>
      <point x="218" y="689" type="line"/>
      <point x="222" y="700" type="line"/>
      <point x="675" y="700" type="line"/>
      <point x="-10" y="12" type="line"/>
      <point x="430" y="12" type="line"/>
      <point x="426" y="0" type="line"/>
      <point x="-37" y="0" type="line"/>
      <point x="649" y="689" type="line"/>
    </contour>
  </outline>
</glyph>
<glyph name="underscore" format="2">
  <advance width="470"/>
  <unicode hex="005F"/>
  <outline>
    <contour>
      <point x="-92" y="-109" type="line"/>
      <point x="-88" y="-98" type="line"/>
      <point x="383" y="-98" type="line"/>
      <point x="379" y="-109" type="line"/>
    </contour>
  </outline>
</glyph>
<glyph name="e" format="2">
  <advance width="502"/>
  <unicode hex="0065"/>
  <outline>
    <contour>
      <point x="200" y="-10" type="curve" smooth="yes"/>
      <point x="114" y="-10"/>
      <point x="65" y="54"/>
      <point x="65" y="162" type="curve" smooth="yes"/>
      <point x="65" y="298"/>
      <point x="212" y="470"/>
      <point x="352" y="470" type="curve" smooth="yes"/>
      <point x="433" y="470"/>
      <point x="483" y="392"/>
      <point x="483" y="304" type="curve" smooth="yes"/>
      <point x="483" y="277"/>
      <point x="474" y="249"/>
      <point x="464" y="228" type="curve"/>
      <point x="84" y="228" type="line"/>
      <point x="84" y="238" type="line"/>
      <point x="459" y="238" type="line"/>
      <point x="452" y="229" type="line"/>
      <point x="460" y="245"/>
      <point x="473" y="272"/>
      <point x="473" y="305" type="curve" smooth="yes"/>
      <point x="473" y="388"/>
      <point x="428" y="460"/>
      <point x="352" y="460" type="curve" smooth="yes"/>
      <point x="217" y="460"/>
      <point x="75" y="292"/>
      <point x="75" y="162" type="curve" smooth="yes"/>
      <point x="75" y="61"/>
      <point x="120" y="0"/>
      <point x="200" y="0" type="curve" smooth="yes"/>
      <point x="282" y="0"/>
      <point x="358" y="43"/>
      <point x="412" y="113" type="curve"/>
      <point x="420" y="107" type="line"/>
      <point x="363" y="34"/>
      <point x="284" y="-10"/>
    </contour>
  </outline>
</glyph>
<glyph name="f" format="2">
  <advance width="261"/>
  <unicode hex="0066"/>
  <outline>
    <contour>
      <point x="150" y="460" type="line"/>
      <point x="333" y="460" type="line"/>
      <point x="330" y="450" type="line"/>
      <point x="146" y="450" type="line"/>
    </contour>
    <contour>
      <point x="462" y="733" type="line"/>
      <point x="448" y="755"/>
      <point x="433" y="775"/>
      <point x="404" y="777" type="curve" smooth="yes"/>
      <point x="334" y="781"/>
      <point x="289" y="706"/>
      <point x="267" y="650" type="curve" smooth="yes"/>
      <point x="44" y="0" type="line"/>
      <point x="34" y="0" type="line"/>
      <point x="256" y="650" type="line" smooth="yes"/>
      <point x="279" y="711"/>
      <point x="329" y="792"/>
      <point x="405" y="787" type="curve" smooth="yes"/>
      <point x="437" y="785"/>
      <point x="454" y="765"/>
      <point x="470" y="740" type="curve"/>
    </contour>
  </outline>
</glyph>
<glyph name="j" format="2">
  <advance width="169"/>
  <unicode hex="006A"/>
  <outline>
    <contour>
      <point x="253" y="695" type="curve" smooth="yes"/>
      <point x="253" y="701"/>
      <point x="257" y="705"/>
      <point x="263" y="705" type="curve" smooth="yes"/>
      <point x="269" y="705"/>
      <point x="273" y="701"/>
      <point x="273" y="695" type="curve" smooth="yes"/>
      <point x="273" y="689"/>
      <point x="269" y="685"/>
      <point x="263" y="685" type="curve" smooth="yes"/>
      <point x="257" y="685"/>
      <point x="253" y="689"/>
    </contour>
    <contour>
      <point x="-202" y="-165" type="line"/>
      <point x="-191" y="-184"/>
      <point x="-174" y="-209"/>
      <point x="-146" y="-209" type="curve" smooth="yes"/>
      <point x="-74.2686" y="-209"/>
      <point x="-27" y="-134"/>
      <point x="-7" y="-82" type="curve" smooth="yes"/>
      <point x="179" y="459" type="line"/>
      <point x="189" y="459" type="line"/>
      <point x="3" y="-82" type="line" smooth="yes"/>
      <point x="-20" y="-143"/>
      <point x="-70" y="-219"/>
      <point x="-146" y="-219" type="curve" smooth="yes"/>
      <point x="-178.062" y="-219"/>
      <point x="-195" y="-197"/>
      <point x="-211" y="-172" type="curve"/>
    </contour>
  </outline>
</glyph>
<glyph name="t" format="2">
  <advance width="178"/>
  <unicode hex="0074"/>
  <outline>
    <contour>
      <point x="121" y="460" type="line"/>
      <point x="272" y="460" type="line"/>
      <point x="268" y="450" type="line"/>
      <point x="117" y="450" type="line"/>
    </contour>
    <contour>
      <point x="243" y="619" type="line"/>
      <point x="253" y="619" type="line"/>
      <point x="39" y="0" type="line"/>
      <point x="29" y="0" type="line"/>
    </contour>
  </outline>
</glyph>
<glyph name="u" format="2">
  <advance width="446"/>
  <unicode hex="0075"/>
  <outline>
    <contour>
      <point x="86" y="150" type="line" smooth="yes"/>
      <point x="66" y="86"/>
      <point x="62" y="2"/>
      <point x="150" y="1" type="curve" smooth="yes"/>
      <point x="246" y="-1"/>
      <point x="332.74" y="88.0525"/>
      <point x="359" y="164" type="curve" smooth="yes"/>
      <point x="461" y="459" type="line"/>
      <point x="471" y="459" type="line"/>
      <point x="312" y="0" type="line"/>
      <point x="302" y="0" type="line"/>
      <point x="341" y="109" type="line"/>
      <point x="297" y="46"/>
      <point x="237" y="-11"/>
      <point x="148" y="-9" type="curve" smooth="yes"/>
      <point x="53" y="-8"/>
      <point x="54" y="80"/>
      <point x="76" y="150" type="curve" smooth="yes"/>
      <point x="184" y="459" type="line"/>
      <point x="194" y="459" type="line"/>
    </contour>
  </outline>
</glyph>
<glyph name="x" format="2">
  <advance width="357"/>
  <unicode hex="0078"/>
  <outline>
    <contour>
      <point x="433" y="458" type="line"/>
      <point x="447" y="458" type="line"/>
      <point x="224" y="236" type="line"/>
      <point x="314" y="0" type="line"/>
      <point x="302" y="0" type="line"/>
      <point x="216" y="229" type="line"/>
      <point x="-11" y="0" type="line"/>
      <point x="-26" y="0" type="line"/>
      <point x="212" y="238" type="line"/>
      <point x="126" y="460" type="line"/>
      <point x="138" y="460" type="line"/>
      <point x="220" y="245" type="line"/>
    </contour>
  </outline>
</glyph>
<glyph name="y" format="2">
  <advance width="399"/>
  <unicode hex="0079"/>
  <outline>
    <contour>
      <point x="495" y="459" type="line"/>
      <point x="-22" y="-219" type="line"/>
      <point x="-33" y="-218" type="line"/>
      <point x="151" y="21" type="line"/>
      <point x="112" y="460" type="line"/>
      <point x="122" y="460" type="line"/>
      <point x="161" y="20" type="line"/>
      <point x="149" y="21" type="line"/>
      <point x="484" y="459" type="line"/>
    </contour>
  </outline>
</glyph>
<glyph name="braceright" format="2">
  <advance width="264"/>
  <unicode hex="007D"/>
  <outline>
    <contour>
      <point x="72" y="-60" type="curve" smooth="yes"/>
      <point x="136" y="150" type="line" smooth="yes"/>
      <point x="157" y="210"/>
      <point x="185" y="264"/>
      <point x="245" y="291" type="curve"/>
      <point x="244" y="288" type="line"/>
      <point x="196" y="323"/>
      <point x="208" y="378"/>
      <point x="223" y="430" type="curve" smooth="yes"/>
      <point x="288" y="640" type="line" smooth="yes"/>
      <point x="303" y="692"/>
      <point x="323" y="770"/>
      <point x="250" y="770" type="curve" smooth="yes"/>
      <point x="231" y="770" type="line"/>
      <point x="234" y="780" type="line"/>
      <point x="252" y="780" type="line" smooth="yes"/>
      <point x="332" y="780"/>
      <point x="314" y="697"/>
      <point x="297" y="640" type="curve" smooth="yes"/>
      <point x="232" y="430" type="line" smooth="yes"/>
      <point x="218" y="381"/>
      <point x="212" y="336"/>
      <point x="247" y="295" type="curve"/>
      <point x="244" y="285" type="line"/>
      <point x="194" y="252"/>
      <point x="166" y="206"/>
      <point x="147" y="150" type="curve" smooth="yes"/>
      <point x="83" y="-60" type="line" smooth="yes"/>
      <point x="61" y="-127"/>
      <point x="29" y="-200"/>
      <point x="-49" y="-200" type="curve" smooth="yes"/>
      <point x="-68" y="-200" type="line"/>
      <point x="-65" y="-191" type="line"/>
      <point x="-47" y="-191" type="line" smooth="yes"/>
      <point x="25" y="-191"/>
      <point x="52" y="-121"/>
    </contour>
  </outline>
</glyph>
<glyph name="currency" format="2">
  <advance width="526"/>
  <unicode hex="00A4"/>
  <outline>
    <contour>
      <point x="177" y="523" type="line"/>
      <point x="190" y="533" type="line"/>
      <point x="229" y="469" type="line"/>
      <point x="217" y="460" type="line"/>
    </contour>
    <contour>
      <point x="31" y="68" type="line"/>
      <point x="25" y="79" type="line"/>
      <point x="108" y="139" type="line"/>
      <point x="114" y="129" type="line"/>
    </contour>
    <contour>
      <point x="525" y="461" type="line"/>
      <point x="518" y="471" type="line"/>
      <point x="601" y="532" type="line"/>
      <point x="607" y="521" type="line"/>
    </contour>
    <contour>
      <point x="403" y="131" type="line"/>
      <point x="415" y="140" type="line"/>
      <point x="454" y="77" type="line"/>
      <point x="443" y="67" type="line"/>
    </contour>
    <contour>
      <point x="96" y="300" type="curve" smooth="yes"/>
      <point x="136" y="421"/>
      <point x="258" y="540"/>
      <point x="392" y="539" type="curve" smooth="yes"/>
      <point x="523" y="538"/>
      <point x="563" y="408"/>
      <point x="527" y="300" type="curve" smooth="yes"/>
      <point x="487" y="179"/>
      <point x="365" y="60"/>
      <point x="231" y="61" type="curve" smooth="yes"/>
      <point x="100" y="62"/>
      <point x="60" y="192"/>
    </contour>
    <contour>
      <point x="106" y="300" type="curve" smooth="yes"/>
      <point x="71" y="198"/>
      <point x="107" y="72"/>
      <point x="232" y="71" type="curve" smooth="yes"/>
      <point x="360" y="70"/>
      <point x="478" y="185"/>
      <point x="517" y="300" type="curve" smooth="yes"/>
      <point x="552" y="402"/>
      <point x="516" y="528"/>
      <point x="391" y="529" type="curve" smooth="yes"/>
      <point x="263" y="530"/>
      <point x="145" y="415"/>
    </contour>
  </outline>
</glyph>
<glyph name="dieresis" format="2">
  <advance width="397"/>
  <unicode hex="00A8"/>
  <outline>
    <contour>
      <point x="460" y="689" type="curve" smooth="yes"/>
      <point x="461" y="693"/>
      <point x="468" y="700"/>
      <point x="473" y="700" type="curve" smooth="yes"/>
      <point x="478" y="700"/>
      <point x="482" y="694"/>
      <point x="481" y="689" type="curve" smooth="yes"/>
      <point x="480" y="685"/>
      <point x="472" y="678"/>
      <point x="467" y="678" type="curve" smooth="yes"/>
      <point x="462" y="678"/>
      <point x="459" y="684"/>
    </contour>
    <contour>
      <point x="272" y="689" type="curve" smooth="yes"/>
      <point x="273" y="693"/>
      <point x="280" y="700"/>
      <point x="285" y="700" type="curve" smooth="yes"/>
      <point x="290" y="700"/>
      <point x="294" y="694"/>
      <point x="293" y="689" type="curve" smooth="yes"/>
      <point x="292" y="685"/>
      <point x="284" y="678"/>
      <point x="279" y="678" type="curve" smooth="yes"/>
      <point x="274" y="678"/>
      <point x="271" y="684"/>
    </contour>
  </outline>
</glyph>
<glyph name="registered" format="2">
  <advance width="752"/>
  <unicode hex="00AE"/>
  <outline>
    <contour>
      <point x="413" y="340" type="line"/>
      <point x="421" y="340" type="line"/>
      <point x="489" y="150" type="line"/>
      <point x="480" y="150" type="line"/>
    </contour>
    <contour>
      <point x="425" y="570" type="line"/>
      <point x="432" y="570" type="line"/>
      <point x="300" y="150" type="line"/>
      <point x="293" y="150" type="line"/>
    </contour>
    <contour>
      <point x="422" y="563" type="line"/>
      <point x="424" y="570" type="line"/>
      <point x="488" y="570" type="line"/>
      <point x="555" y="566"/>
      <point x="609" y="526"/>
      <point x="587" y="453" type="curve" smooth="yes"/>
      <point x="565" y="379"/>
      <point x="489" y="343"/>
      <point x="417" y="339" type="curve"/>
      <point x="353" y="338" type="line"/>
      <point x="354" y="344" type="line"/>
      <point x="418" y="344" type="line"/>
      <point x="487" y="348"/>
      <point x="559" y="383"/>
      <point x="580" y="454" type="curve" smooth="yes"/>
      <point x="601" y="523"/>
      <point x="550" y="558"/>
      <point x="487" y="562" type="curve"/>
    </contour>
    <contour>
      <point x="121" y="350" type="curve" smooth="yes"/>
      <point x="69" y="183"/>
      <point x="149" y="1"/>
      <point x="341" y="0" type="curve" smooth="yes"/>
      <point x="540" y="-1"/>
      <point x="722" y="167"/>
      <point x="779" y="350" type="curve" smooth="yes"/>
      <point x="831" y="517"/>
      <point x="751" y="699"/>
      <point x="559" y="700" type="curve" smooth="yes"/>
      <point x="360" y="701"/>
      <point x="178" y="533"/>
    </contour>
    <contour>
      <point x="111" y="350" type="curve" smooth="yes"/>
      <point x="169" y="540"/>
      <point x="353" y="711"/>
      <point x="559" y="710" type="curve" smooth="yes"/>
      <point x="758" y="709"/>
      <point x="842" y="524"/>
      <point x="789" y="350" type="curve" smooth="yes"/>
      <point x="731" y="160"/>
      <point x="546" y="-11"/>
      <point x="340" y="-10" type="curve" smooth="yes"/>
      <point x="141" y="-9"/>
      <point x="58" y="176"/>
    </contour>
  </outline>
</glyph>
<glyph name="degree" format="2">
  <advance width="261"/>
  <unicode hex="00B0"/>
  <outline>
    <contour>
      <point x="168" y="601" type="curve" smooth="yes"/>
      <point x="188" y="662"/>
      <point x="255" y="720"/>
      <point x="322" y="719" type="curve" smooth="yes"/>
      <point x="388" y="718"/>
      <point x="413" y="656"/>
      <point x="394" y="599" type="curve" smooth="yes"/>
      <point x="374" y="538"/>
      <point x="308" y="480"/>
      <point x="241" y="481" type="curve" smooth="yes"/>
      <point x="175" y="482"/>
      <point x="149" y="544"/>
    </contour>
    <contour>
      <point x="178" y="600" type="curve" smooth="yes"/>
      <point x="160" y="549"/>
      <point x="182" y="493"/>
      <point x="242" y="491" type="curve" smooth="yes"/>
      <point x="303" y="489"/>
      <point x="365" y="545"/>
      <point x="384" y="600" type="curve" smooth="yes"/>
      <point x="402" y="651"/>
      <point x="380" y="707"/>
      <point x="320" y="709" type="curve" smooth="yes"/>
      <point x="259" y="711"/>
      <point x="197" y="655"/>
    </contour>
  </outline>
</glyph>
<glyph name="acute" format="2">
  <advance width="332"/>
  <unicode hex="00B4"/>
  <outline>
    <contour>
      <point x="418" y="690" type="line"/>
      <point x="205" y="537" type="line"/>
      <point x="201" y="542" type="line"/>
      <point x="412" y="698" type="line"/>
    </contour>
  </outline>
</glyph>
<glyph name="Agrave" format="2">
  <advance width="564"/>
  <unicode hex="00C0"/>
  <outline>
    <contour>
      <point x="158" y="272" type="line"/>
      <point x="161" y="282" type="line"/>
      <point x="486" y="282" type="line"/>
      <point x="483" y="272" type="line"/>
    </contour>
    <contour>
      <point x="465" y="688" type="line"/>
      <point x="169" y="277" type="line"/>
      <point x="167" y="273" type="line"/>
      <point x="-30" y="0" type="line"/>
      <point x="-42" y="0" type="line"/>
      <point x="473" y="715" type="line"/>
      <point x="496" y="0" type="line"/>
      <point x="484" y="0" type="line"/>
      <point x="478" y="273" type="line"/>
      <point x="478" y="276" type="line"/>
    </contour>
    <contour>
      <point x="417" y="932" type="line"/>
      <point x="427" y="939" type="line"/>
      <point x="535" y="780" type="line"/>
      <point x="530" y="776" type="line"/>
    </contour>
  </outline>
</glyph>
<glyph name="Adieresis" format="2">
  <advance width="564"/>
  <unicode hex="00C4"/>
  <outline>
    <contour>
      <point x="158" y="272" type="line"/>
      <point x="161" y="282" type="line"/>
      <point x="486" y="282" type="line"/>
      <point x="483" y="272" type="line"/>
    </contour>
    <contour>
      <point x="465" y="688" type="line"/>
      <point x="169" y="277" type="line"/>
      <point x="167" y="273" type="line"/>
      <point x="-30" y="0" type="line"/>
      <point x="-42" y="0" type="line"/>
      <point x="473" y="715" type="line"/>
      <point x="496" y="0" type="line"/>
      <point x="484" y="0" type="line"/>
      <point x="478" y="273" type="line"/>
      <point x="478" y="276" type="line"/>
    </contour>
    <contour>
      <point x="587" y="806" type="curve" smooth="yes"/>
      <point x="588" y="810"/>
      <point x="596" y="817"/>
      <point x="601" y="817" type="curve" smooth="yes"/>
      <point x="606" y="817"/>
      <point x="609" y="811"/>
      <point x="608" y="806" type="curve" smooth="yes"/>
      <point x="607" y="802"/>
      <point x="599" y="795"/>
      <point x="594" y="795" type="curve" smooth="yes"/>
      <point x="589" y="795"/>
      <point x="586" y="801"/>
    </contour>
    <contour>
      <point x="398" y="806" type="curve" smooth="yes"/>
      <point x="399" y="810"/>
      <point x="407" y="817"/>
      <point x="412" y="817" type="curve" smooth="yes"/>
      <point x="417" y="817"/>
      <point x="421" y="811"/>
      <point x="420" y="806" type="curve" smooth="yes"/>
      <point x="419" y="802"/>
      <point x="411" y="795"/>
      <point x="406" y="795" type="curve" smooth="yes"/>
      <point x="401" y="795"/>
      <point x="397" y="801"/>
    </contour>
  </outline>
</glyph>
<glyph name="Edieresis" format="2">
  <advance width="479"/>
  <unicode hex="00CB"/>
  <outline>
    <contour>
      <point x="32" y="0" type="line"/>
      <point x="35" y="10" type="line"/>
      <point x="354" y="10" type="line"/>
      <point x="351" y="0" type="line"/>
    </contour>
    <contour>
      <point x="268" y="690" type="line"/>
      <point x="271" y="700" type="line"/>
      <point x="589" y="700" type="line"/>
      <point x="586" y="690" type="line"/>
    </contour>
    <contour>
      <point x="163" y="384" type="line"/>
      <point x="167" y="394" type="line"/>
      <point x="466" y="394" type="line"/>
      <point x="463" y="384" type="line"/>
    </contour>
    <contour>
      <point x="270" y="699" type="line"/>
      <point x="281" y="699" type="line"/>
      <point x="40" y="0" type="line"/>
      <point x="29" y="0" type="line"/>
    </contour>
    <contour>
      <point x="547" y="799" type="curve" smooth="yes"/>
      <point x="548" y="803"/>
      <point x="556" y="810"/>
      <point x="561" y="810" type="curve" smooth="yes"/>
      <point x="566" y="810"/>
      <point x="569" y="804"/>
      <point x="568" y="799" type="curve" smooth="yes"/>
      <point x="567" y="795"/>
      <point x="559" y="788"/>
      <point x="554" y="788" type="curve" smooth="yes"/>
      <point x="549" y="788"/>
      <point x="546" y="794"/>
    </contour>
    <contour>
      <point x="358" y="799" type="curve" smooth="yes"/>
      <point x="359" y="803"/>
      <point x="367" y="810"/>
      <point x="372" y="810" type="curve" smooth="yes"/>
      <point x="377" y="810"/>
      <point x="381" y="804"/>
      <point x="380" y="799" type="curve" smooth="yes"/>
      <point x="379" y="795"/>
      <point x="371" y="788"/>
      <point x="366" y="788" type="curve" smooth="yes"/>
      <point x="361" y="788"/>
      <point x="357" y="794"/>
    </contour>
  </outline>
</glyph>
<glyph name="aring" format="2">
  <advance width="409"/>
  <unicode hex="00E5"/>
  <outline>
    <contour>
      <point x="39" y="135" type="curve" smooth="yes"/>
      <point x="14" y="65"/>
      <point x="49" y="1"/>
      <point x="126" y="1" type="curve" smooth="yes"/>
      <point x="223" y="1"/>
      <point x="294" y="79"/>
      <point x="336" y="158" type="curve"/>
      <point x="341" y="158" type="line"/>
      <point x="300" y="74"/>
      <point x="227" y="-9"/>
      <point x="125" y="-9" type="curve" smooth="yes"/>
      <point x="42" y="-9"/>
      <point x="3" y="60"/>
      <point x="29" y="136" type="curve" smooth="yes"/>
      <point x="60" y="225"/>
      <point x="158" y="280"/>
      <point x="249" y="280" type="curve" smooth="yes"/>
      <point x="295" y="280"/>
      <point x="331" y="265"/>
      <point x="364" y="235" type="curve"/>
      <point x="360" y="226" type="line"/>
      <point x="328" y="256"/>
      <point x="292" y="270"/>
      <point x="247" y="270" type="curve" smooth="yes"/>
      <point x="162" y="270"/>
      <point x="69" y="218"/>
    </contour>
    <contour>
      <point x="159" y="396" type="curve"/>
      <point x="155" y="405" type="line"/>
      <point x="205" y="437"/>
      <point x="262" y="471"/>
      <point x="324" y="469" type="curve" smooth="yes"/>
      <point x="411" y="466"/>
      <point x="419" y="389"/>
      <point x="399" y="320" type="curve" smooth="yes"/>
      <point x="288" y="0" type="line"/>
      <point x="278" y="0" type="line"/>
      <point x="390" y="320" type="line" smooth="yes"/>
      <point x="409" y="384"/>
      <point x="404" y="456"/>
      <point x="323" y="459" type="curve" smooth="yes"/>
      <point x="263" y="462"/>
      <point x="207" y="427"/>
    </contour>
    <contour>
      <point x="283" y="631" type="curve" smooth="yes"/>
      <point x="300" y="682"/>
      <point x="359" y="730"/>
      <point x="414" y="729" type="curve" smooth="yes"/>
      <point x="468" y="728"/>
      <point x="493" y="677"/>
      <point x="477" y="629" type="curve" smooth="yes"/>
      <point x="460" y="578"/>
      <point x="401" y="530"/>
      <point x="346" y="531" type="curve" smooth="yes"/>
      <point x="292" y="532"/>
      <point x="267" y="583"/>
    </contour>
    <contour>
      <point x="293" y="630" type="curve" smooth="yes"/>
      <point x="279" y="588"/>
      <point x="300" y="543"/>
      <point x="348" y="541" type="curve" smooth="yes"/>
      <point x="397" y="539"/>
      <point x="452" y="585"/>
      <point x="467" y="630" type="curve" smooth="yes"/>
      <point x="481" y="672"/>
      <point x="460" y="717"/>
      <point x="412" y="719" type="curve" smooth="yes"/>
      <point x="363" y="721"/>
      <point x="308" y="675"/>
    </contour>
  </outline>
</glyph>
<glyph name="iacute" format="2">
  <advance width="178"/>
  <unicode hex="00ED"/>
  <outline>
    <contour>
      <point x="189" y="459" type="line"/>
      <point x="198" y="459" type="line"/>
      <point x="39" y="0" type="line"/>
      <point x="29" y="0" type="line"/>
    </contour>
    <contour>
      <point x="417" y="685" type="line"/>
      <point x="200" y="532" type="line"/>
      <point x="195" y="537" type="line"/>
      <point x="411" y="693" type="line"/>
    </contour>
  </outline>
</glyph>
<glyph name="icircumflex" format="2">
  <advance width="178"/>
  <unicode hex="00EE"/>
  <outline>
    <contour>
      <point x="189" y="459" type="line"/>
      <point x="198" y="459" type="line"/>
      <point x="39" y="0" type="line"/>
      <point x="29" y="0" type="line"/>
    </contour>
    <contour>
      <point x="263" y="664" type="line"/>
      <point x="72" y="532" type="line"/>
      <point x="67" y="539" type="line"/>
      <point x="266" y="676" type="line"/>
      <point x="370" y="537" type="line"/>
      <point x="361" y="530" type="line"/>
    </contour>
  </outline>
</glyph>
<glyph name="eth" format="2">
  <advance width="536"/>
  <unicode hex="00F0"/>
  <outline>
    <contour>
      <point x="205" y="-10" type="curve" smooth="yes"/>
      <point x="104" y="-10"/>
      <point x="54" y="42"/>
      <point x="54" y="140" type="curve" smooth="yes"/>
      <point x="54" y="286"/>
      <point x="209" y="437"/>
      <point x="343" y="437" type="curve" smooth="yes"/>
      <point x="417" y="437"/>
      <point x="470" y="409"/>
      <point x="495" y="355" type="curve"/>
      <point x="494" y="354" type="line"/>
      <point x="460" y="468"/>
      <point x="445" y="510"/>
      <point x="371" y="694" type="curve"/>
      <point x="380" y="700" type="line"/>
      <point x="509" y="370"/>
      <point x="511" y="340"/>
      <point x="512" y="291" type="curve" smooth="yes"/>
      <point x="515" y="146"/>
      <point x="336" y="-10"/>
    </contour>
    <contour>
      <point x="208" y="0" type="curve" smooth="yes"/>
      <point x="330" y="0"/>
      <point x="501" y="155"/>
      <point x="501" y="290" type="curve" smooth="yes"/>
      <point x="501" y="349"/>
      <point x="466" y="427"/>
      <point x="340" y="427" type="curve" smooth="yes"/>
      <point x="213" y="427"/>
      <point x="64" y="278"/>
      <point x="64" y="140" type="curve" smooth="yes"/>
      <point x="64" y="51"/>
      <point x="116" y="0"/>
    </contour>
    <contour>
      <point x="292" y="520" type="line"/>
      <point x="291" y="530" type="line"/>
      <point x="576" y="640" type="line"/>
      <point x="577" y="630" type="line"/>
    </contour>
  </outline>
</glyph>
<glyph name="Amacron" format="2">
  <advance width="564"/>
  <unicode hex="0100"/>
  <outline>
    <contour>
      <point x="158" y="272" type="line"/>
      <point x="161" y="282" type="line"/>
      <point x="486" y="282" type="line"/>
      <point x="483" y="272" type="line"/>
    </contour>
    <contour>
      <point x="465" y="688" type="line"/>
      <point x="169" y="277" type="line"/>
      <point x="167" y="273" type="line"/>
      <point x="-30" y="0" type="line"/>
      <point x="-42" y="0" type="line"/>
      <point x="473" y="715" type="line"/>
      <point x="496" y="0" type="line"/>
      <point x="484" y="0" type="line"/>
      <point x="478" y="273" type="line"/>
      <point x="478" y="276" type="line"/>
    </contour>
    <contour>
      <point x="335" y="795" type="line"/>
      <point x="338" y="805" type="line"/>
      <point x="668" y="805" type="line"/>
      <point x="664" y="795" type="line"/>
    </contour>
  </outline>
</glyph>
<glyph name="aogonek" format="2">
  <advance width="409"/>
  <unicode hex="0105"/>
  <outline>
    <contour>
      <point x="39" y="135" type="curve" smooth="yes"/>
      <point x="14" y="65"/>
      <point x="49" y="1"/>
      <point x="126" y="1" type="curve" smooth="yes"/>
      <point x="223" y="1"/>
      <point x="294" y="79"/>
      <point x="336" y="158" type="curve"/>
      <point x="341" y="158" type="line"/>
      <point x="300" y="74"/>
      <point x="227" y="-9"/>
      <point x="125" y="-9" type="curve" smooth="yes"/>
      <point x="42" y="-9"/>
      <point x="3" y="60"/>
      <point x="29" y="136" type="curve" smooth="yes"/>
      <point x="60" y="225"/>
      <point x="158" y="280"/>
      <point x="249" y="280" type="curve" smooth="yes"/>
      <point x="295" y="280"/>
      <point x="331" y="265"/>
      <point x="364" y="235" type="curve"/>
      <point x="360" y="226" type="line"/>
      <point x="328" y="256"/>
      <point x="292" y="270"/>
      <point x="247" y="270" type="curve" smooth="yes"/>
      <point x="162" y="270"/>
      <point x="69" y="218"/>
    </contour>
    <contour>
      <point x="159" y="396" type="curve"/>
      <point x="155" y="405" type="line"/>
      <point x="205" y="437"/>
      <point x="262" y="471"/>
      <point x="324" y="469" type="curve" smooth="yes"/>
      <point x="411" y="466"/>
      <point x="419" y="389"/>
      <point x="399" y="320" type="curve" smooth="yes"/>
      <point x="288" y="0" type="line"/>
      <point x="278" y="0" type="line"/>
      <point x="390" y="320" type="line" smooth="yes"/>
      <point x="409" y="384"/>
      <point x="404" y="456"/>
      <point x="323" y="459" type="curve" smooth="yes"/>
      <point x="263" y="462"/>
      <point x="207" y="427"/>
    </contour>
    <contour>
      <point x="262" y="-174" type="curve"/>
      <point x="267" y="-182" type="line"/>
      <point x="235" y="-202"/>
      <point x="200" y="-220"/>
      <point x="161" y="-219" type="curve" smooth="yes"/>
      <point x="114" y="-218"/>
      <point x="76" y="-190"/>
      <point x="90" y="-139" type="curve" smooth="yes"/>
      <point x="112" y="-59"/>
      <point x="219" y="-21"/>
      <point x="286" y="9" type="curve"/>
      <point x="290" y="0" type="line"/>
      <point x="228" y="-30"/>
      <point x="120" y="-64"/>
      <point x="100" y="-140" type="curve" smooth="yes"/>
      <point x="88" y="-184"/>
      <point x="123" y="-208"/>
      <point x="163" y="-209" type="curve" smooth="yes"/>
      <point x="199" y="-210"/>
      <point x="232" y="-191"/>
    </contour>
  </outline>
</glyph>
<glyph name="cdotaccent" format="2">
  <advance width="459"/>
  <unicode hex="010B"/>
  <outline>
    <contour>
      <point x="71" y="230" type="curve" smooth="yes"/>
      <point x="35" y="125"/>
      <point x="75" y="2"/>
      <point x="202" y="1" type="curve" smooth="yes"/>
      <point x="263" y="1"/>
      <point x="319" y="27"/>
      <point x="370" y="59" type="curve"/>
      <point x="366" y="47" type="line"/>
      <point x="316" y="15"/>
      <point x="260" y="-9"/>
      <point x="200" y="-9" type="curve" smooth="yes"/>
      <point x="67" y="-9"/>
      <point x="24" y="119"/>
      <point x="61" y="230" type="curve" smooth="yes"/>
      <point x="102" y="354"/>
      <point x="226" y="470"/>
      <point x="362" y="469" type="curve" smooth="yes"/>
      <point x="413" y="469"/>
      <point x="456" y="450"/>
      <point x="490" y="412" type="curve"/>
      <point x="486" y="400" type="line"/>
      <point x="454" y="439"/>
      <point x="412" y="459"/>
      <point x="361" y="459" type="curve" smooth="yes"/>
      <point x="231" y="459"/>
      <point x="112" y="348"/>
    </contour>
    <contour>
      <point x="380" y="551" type="curve" smooth="yes"/>
      <point x="381" y="555"/>
      <point x="389" y="562"/>
      <point x="394" y="562" type="curve" smooth="yes"/>
      <point x="399" y="562"/>
      <point x="402" y="556"/>
      <point x="401" y="551" type="curve" smooth="yes"/>
      <point x="400" y="547"/>
      <point x="392" y="540"/>
      <point x="387" y="540" type="curve" smooth="yes"/>
      <point x="382" y="540"/>
      <point x="379" y="546"/>
    </contour>
  </outline>
</glyph>
<glyph name="eogonek" format="2">
  <advance width="472"/>
  <unicode hex="0119"/>
  <outline>
    <contour>
      <point x="85" y="228" type="line"/>
      <point x="88" y="238" type="line"/>
      <point x="457" y="238" type="line"/>
      <point x="493" y="321"/>
      <point x="473" y="456"/>
      <point x="349" y="458" type="curve" smooth="yes"/>
      <point x="221" y="460"/>
      <point x="125" y="338"/>
      <point x="88" y="234" type="curve"/>
      <point x="89" y="233" type="line"/>
      <point x="66" y="137"/>
      <point x="76.002" y="3.09668"/>
      <point x="200" y="1" type="curve" smooth="yes"/>
      <point x="282.994" y="-0.40332"/>
      <point x="357" y="54"/>
      <point x="416" y="112" type="curve"/>
      <point x="423" y="105" type="line"/>
      <point x="362" y="44"/>
      <point x="289.02" y="-9.70312"/>
      <point x="199" y="-9" type="curve" smooth="yes"/>
      <point x="71" y="-8"/>
      <point x="50" y="132"/>
      <point x="79" y="232" type="curve" smooth="yes"/>
      <point x="87" y="258"/>
      <point x="98" y="284"/>
      <point x="112" y="308" type="curve" smooth="yes"/>
      <point x="160" y="390"/>
      <point x="248" y="470"/>
      <point x="349" y="469" type="curve" smooth="yes"/>
      <point x="464" y="467"/>
      <point x="502" y="350"/>
      <point x="474" y="254" type="curve" smooth="yes"/>
      <point x="471" y="245"/>
      <point x="467" y="236"/>
      <point x="464" y="228" type="curve"/>
    </contour>
    <contour>
      <point x="187" y="-182" type="curve"/>
      <point x="192" y="-189" type="line"/>
      <point x="160" y="-209"/>
      <point x="127" y="-228"/>
      <point x="88" y="-227" type="curve" smooth="yes"/>
      <point x="41" y="-226"/>
      <point x="2" y="-198"/>
      <point x="14" y="-147" type="curve" smooth="yes"/>
      <point x="33" y="-68"/>
      <point x="138" y="-29"/>
      <point x="203" y="0" type="curve"/>
      <point x="208" y="-8" type="line"/>
      <point x="147" y="-38"/>
      <point x="41" y="-73"/>
      <point x="23" y="-148" type="curve" smooth="yes"/>
      <point x="13" y="-192"/>
      <point x="49" y="-216"/>
      <point x="89" y="-217" type="curve" smooth="yes"/>
      <point x="125" y="-218"/>
      <point x="157" y="-200"/>
    </contour>
  </outline>
</glyph>
<glyph name="Ecaron" format="2">
  <advance width="479"/>
  <unicode hex="011A"/>
  <outline>
    <contour>
      <point x="32" y="0" type="line"/>
      <point x="35" y="10" type="line"/>
      <point x="354" y="10" type="line"/>
      <point x="351" y="0" type="line"/>
    </contour>
    <contour>
      <point x="268" y="690" type="line"/>
      <point x="271" y="700" type="line"/>
      <point x="589" y="700" type="line"/>
      <point x="586" y="690" type="line"/>
    </contour>
    <contour>
      <point x="163" y="384" type="line"/>
      <point x="167" y="394" type="line"/>
      <point x="466" y="394" type="line"/>
      <point x="463" y="384" type="line"/>
    </contour>
    <contour>
      <point x="270" y="699" type="line"/>
      <point x="281" y="699" type="line"/>
      <point x="40" y="0" type="line"/>
      <point x="29" y="0" type="line"/>
    </contour>
    <contour>
      <point x="455" y="781" type="line"/>
      <point x="646" y="914" type="line"/>
      <point x="652" y="906" type="line"/>
      <point x="453" y="769" type="line"/>
      <point x="349" y="908" type="line"/>
      <point x="359" y="916" type="line"/>
    </contour>
  </outline>
</glyph>
<glyph name="gcircumflex" format="2">
  <advance width="509"/>
  <unicode hex="011D"/>
  <outline>
    <contour>
      <point x="-7" y="-30" type="curve"/>
      <point x="3" y="-30" type="line"/>
      <point x="-20" y="-120"/>
      <point x="-6" y="-217"/>
      <point x="107" y="-219" type="curve" smooth="yes"/>
      <point x="237" y="-221"/>
      <point x="332" y="-101"/>
      <point x="373" y="10" type="curve" smooth="yes"/>
      <point x="528" y="459" type="line"/>
      <point x="538" y="459" type="line"/>
      <point x="384" y="10" type="line" smooth="yes"/>
      <point x="341" y="-107"/>
      <point x="242" y="-230"/>
      <point x="106" y="-229" type="curve" smooth="yes"/>
      <point x="-12" y="-228"/>
      <point x="-31" y="-125"/>
    </contour>
    <contour>
      <point x="66" y="230" type="curve" smooth="yes"/>
      <point x="105" y="346"/>
      <point x="215" y="472"/>
      <point x="348" y="469" type="curve" smooth="yes"/>
      <point x="474" y="466"/>
      <point x="485" y="324"/>
      <point x="454" y="230" type="curve" smooth="yes"/>
      <point x="417" y="120"/>
      <point x="313" y="-8"/>
      <point x="186" y="-9" type="curve" smooth="yes"/>
      <point x="53" y="-10"/>
      <point x="32" y="128"/>
    </contour>
    <contour>
      <point x="76" y="230" type="curve" smooth="yes"/>
      <point x="42" y="132"/>
      <point x="62" y="0"/>
      <point x="190" y="1" type="curve" smooth="yes"/>
      <point x="312" y="2"/>
      <point x="415" y="129"/>
      <point x="450" y="235" type="curve" smooth="yes"/>
      <point x="479" y="322"/>
      <point x="464" y="455"/>
      <point x="349" y="459" type="curve" smooth="yes"/>
      <point x="222" y="464"/>
      <point x="114" y="341"/>
    </contour>
    <contour>
      <point x="417" y="664" type="line"/>
      <point x="225" y="532" type="line"/>
      <point x="220" y="539" type="line"/>
      <point x="419" y="676" type="line"/>
      <point x="523" y="537" type="line"/>
      <point x="515" y="530" type="line"/>
    </contour>
  </outline>
</glyph>
<glyph name="Gdotaccent" format="2">
  <advance width="719"/>
  <unicode hex="0120"/>
  <outline>
    <contour>
      <point x="454" y="330" type="line"/>
      <point x="457" y="340" type="line"/>
      <point x="730" y="339" type="line"/>
      <point x="660" y="169"/>
      <point x="511" y="-7"/>
      <point x="311" y="-7" type="curve" smooth="yes"/>
      <point x="113" y="-7"/>
      <point x="58" y="188"/>
      <point x="112" y="350" type="curve" smooth="yes"/>
      <point x="173" y="533"/>
      <point x="350" y="709"/>
      <point x="553" y="708" type="curve" smooth="yes"/>
      <point x="656" y="708"/>
      <point x="727" y="649"/>
      <point x="765" y="556" type="curve"/>
      <point x="754" y="550" type="line"/>
      <point x="723" y="642"/>
      <point x="650" y="697"/>
      <point x="552" y="697" type="curve" smooth="yes"/>
      <point x="354" y="698"/>
      <point x="184" y="528"/>
      <point x="123" y="350" type="curve" smooth="yes"/>
      <point x="70" y="194"/>
      <point x="120" y="4"/>
      <point x="313" y="4" type="curve" smooth="yes"/>
      <point x="504" y="4"/>
      <point x="646" y="169"/>
      <point x="717" y="329" type="curve"/>
    </contour>
    <contour>
      <point x="568" y="779" type="curve" smooth="yes"/>
      <point x="569" y="783"/>
      <point x="577" y="790"/>
      <point x="582" y="790" type="curve" smooth="yes"/>
      <point x="587" y="790"/>
      <point x="590" y="784"/>
      <point x="589" y="779" type="curve" smooth="yes"/>
      <point x="588" y="775"/>
      <point x="580" y="768"/>
      <point x="575" y="768" type="curve" smooth="yes"/>
      <point x="570" y="768"/>
      <point x="567" y="774"/>
    </contour>
  </outline>
</glyph>
<glyph name="Ibreve" format="2">
  <advance width="169"/>
  <unicode hex="012C"/>
  <outline>
    <contour>
      <point x="266" y="699" type="line"/>
      <point x="276" y="699" type="line"/>
      <point x="34" y="0" type="line"/>
      <point x="24" y="0" type="line"/>
    </contour>
    <contour>
      <point x="191" y="910" type="curve"/>
      <point x="200" y="910" type="line"/>
      <point x="188" y="840"/>
      <point x="214" y="782"/>
      <point x="293" y="781" type="curve" smooth="yes"/>
      <point x="377" y="780"/>
      <point x="441" y="840"/>
      <point x="480" y="908" type="curve"/>
      <point x="490" y="908" type="line"/>
      <point x="450" y="833"/>
      <point x="382" y="770"/>
      <point x="292" y="771" type="curve" smooth="yes"/>
      <point x="206" y="772"/>
      <point x="177" y="833"/>
    </contour>
  </outline>
</glyph>
<glyph name="iogonek" format="2">
  <advance width="178"/>
  <unicode hex="012F"/>
  <outline>
    <contour>
      <point x="263" y="695" type="curve" smooth="yes"/>
      <point x="264" y="699"/>
      <point x="270" y="705"/>
      <point x="275" y="705" type="curve" smooth="yes"/>
      <point x="280" y="705"/>
      <point x="283" y="700"/>
      <point x="282" y="695" type="curve" smooth="yes"/>
      <point x="281" y="691"/>
      <point x="274" y="685"/>
      <point x="269" y="685" type="curve" smooth="yes"/>
      <point x="264" y="685"/>
      <point x="262" y="690"/>
    </contour>
    <contour>
      <point x="189" y="459" type="line"/>
      <point x="198" y="459" type="line"/>
      <point x="39" y="0" type="line"/>
      <point x="29" y="0" type="line"/>
    </contour>
    <contour>
      <point x="13" y="-174" type="curve"/>
      <point x="18" y="-182" type="line"/>
      <point x="-14" y="-202"/>
      <point x="-49" y="-220"/>
      <point x="-88" y="-219" type="curve" smooth="yes"/>
      <point x="-135" y="-218"/>
      <point x="-173" y="-190"/>
      <point x="-159" y="-139" type="curve" smooth="yes"/>
      <point x="-137" y="-59"/>
      <point x="-30" y="-20"/>
      <point x="37" y="9" type="curve"/>
      <point x="41" y="0" type="line"/>
      <point x="-21" y="-30"/>
      <point x="-130" y="-64"/>
      <point x="-150" y="-140" type="curve" smooth="yes"/>
      <point x="-162" y="-184"/>
      <point x="-126" y="-208"/>
      <point x="-86" y="-209" type="curve" smooth="yes"/>
      <point x="-50" y="-210"/>
      <point x="-17" y="-191"/>
    </contour>
  </outline>
</glyph>
<glyph name="dotlessi" format="2">
  <advance width="178"/>
  <unicode hex="0131"/>
  <outline>
    <contour>
      <point x="189" y="459" type="line"/>
      <point x="198" y="459" type="line"/>
      <point x="39" y="0" type="line"/>
      <point x="29" y="0" type="line"/>
    </contour>
  </outline>
</glyph>
<glyph name="IJ" format="2">
  <advance width="461"/>
  <unicode hex="0132"/>
  <outline>
    <contour>
      <point x="6" y="-159" type="line"/>
      <point x="29" y="-186"/>
      <point x="55" y="-207"/>
      <point x="93" y="-208" type="curve" smooth="yes"/>
      <point x="184" y="-211"/>
      <point x="227" y="-124"/>
      <point x="254" y="-50" type="curve" smooth="yes"/>
      <point x="511" y="699" type="line"/>
      <point x="522" y="699" type="line"/>
      <point x="262" y="-60" type="line" smooth="yes"/>
      <point x="234" y="-137"/>
      <point x="185" y="-222"/>
      <point x="92" y="-219" type="curve" smooth="yes"/>
      <point x="50" y="-218"/>
      <point x="22" y="-196"/>
      <point x="-2" y="-165" type="curve"/>
    </contour>
    <contour>
      <point x="266" y="699" type="line"/>
      <point x="276" y="699" type="line"/>
      <point x="34" y="0" type="line"/>
      <point x="24" y="0" type="line"/>
    </contour>
  </outline>
</glyph>
<glyph name="ij" format="2">
  <advance width="479"/>
  <unicode hex="0133"/>
  <outline>
    <contour>
      <point x="498" y="695" type="curve" smooth="yes"/>
      <point x="499" y="699"/>
      <point x="506" y="705"/>
      <point x="511" y="705" type="curve" smooth="yes"/>
      <point x="516" y="705"/>
      <point x="518" y="700"/>
      <point x="517" y="695" type="curve" smooth="yes"/>
      <point x="516" y="691"/>
      <point x="510" y="685"/>
      <point x="505" y="685" type="curve" smooth="yes"/>
      <point x="500" y="685"/>
      <point x="497" y="690"/>
    </contour>
    <contour>
      <point x="42" y="-165" type="line"/>
      <point x="62" y="-165"/>
      <point x="77" y="-206"/>
      <point x="101" y="-209" type="curve" smooth="yes"/>
      <point x="169" y="-219"/>
      <point x="217" y="-134"/>
      <point x="237" y="-82" type="curve" smooth="yes"/>
      <point x="424" y="459" type="line"/>
      <point x="434" y="459" type="line"/>
      <point x="248" y="-82" type="line" smooth="yes"/>
      <point x="225" y="-143"/>
      <point x="175" y="-224"/>
      <point x="99" y="-219" type="curve" smooth="yes"/>
      <point x="67" y="-217"/>
      <point x="50" y="-197"/>
      <point x="34" y="-172" type="curve"/>
    </contour>
    <contour>
      <point x="263" y="695" type="curve" smooth="yes"/>
      <point x="264" y="699"/>
      <point x="270" y="705"/>
      <point x="275" y="705" type="curve" smooth="yes"/>
      <point x="280" y="705"/>
      <point x="283" y="700"/>
      <point x="282" y="695" type="curve" smooth="yes"/>
      <point x="281" y="691"/>
      <point x="274" y="685"/>
      <point x="269" y="685" type="curve" smooth="yes"/>
      <point x="264" y="685"/>
      <point x="262" y="690"/>
    </contour>
    <contour>
      <point x="189" y="459" type="line"/>
      <point x="198" y="459" type="line"/>
      <point x="39" y="0" type="line"/>
      <point x="29" y="0" type="line"/>
    </contour>
  </outline>
</glyph>
<glyph name="uni0136" format="2">
  <advance width="427"/>
  <unicode hex="0136"/>
  <outline>
    <contour>
      <point x="266" y="699" type="line"/>
      <point x="276" y="699" type="line"/>
      <point x="35" y="0" type="line"/>
      <point x="24" y="0" type="line"/>
    </contour>
    <contour>
      <point x="569" y="698" type="line"/>
      <point x="585" y="698" type="line"/>
      <point x="175" y="371" type="line"/>
      <point x="359" y="0" type="line"/>
      <point x="344" y="0" type="line"/>
      <point x="161" y="373" type="line"/>
    </contour>
    <contour>
      <point x="217" y="-62" type="line"/>
      <point x="227" y="-67" type="line"/>
      <point x="35" y="-313" type="line"/>
      <point x="29" y="-311" type="line"/>
    </contour>
  </outline>
</glyph>
<glyph name="uni0137" format="2">
  <advance width="350"/>
  <unicode hex="0137"/>
  <outline>
    <contour>
      <point x="288" y="779" type="line"/>
      <point x="298" y="779" type="line"/>
      <point x="29" y="0" type="line"/>
      <point x="20" y="0" type="line"/>
    </contour>
    <contour>
      <point x="411" y="458" type="line"/>
      <point x="427" y="458" type="line"/>
      <point x="133" y="270" type="line"/>
      <point x="287" y="0" type="line"/>
      <point x="274" y="0" type="line"/>
      <point x="120" y="271" type="line"/>
    </contour>
    <contour>
      <point x="179" y="-62" type="line"/>
      <point x="188" y="-67" type="line"/>
      <point x="-4" y="-313" type="line"/>
      <point x="-10" y="-311" type="line"/>
    </contour>
  </outline>
</glyph>
<glyph name="lacute" format="2">
  <advance width="169"/>
  <unicode hex="013A"/>
  <outline>
    <contour>
      <point x="293" y="779" type="line"/>
      <point x="303" y="779" type="line"/>
      <point x="34" y="0" type="line"/>
      <point x="24" y="0" type="line"/>
    </contour>
    <contour>
      <point x="538" y="995" type="line"/>
      <point x="318" y="842" type="line"/>
      <point x="316" y="847" type="line"/>
      <point x="532" y="1003" type="line"/>
    </contour>
  </outline>
</glyph>
<glyph name="Ldot" format="2">
  <advance width="404"/>
  <unicode hex="013F"/>
  <outline>
    <contour>
      <point x="270" y="699" type="line"/>
      <point x="280" y="699" type="line"/>
      <point x="43" y="10" type="line"/>
      <point x="335" y="10" type="line"/>
      <point x="332" y="0" type="line"/>
      <point x="30" y="0" type="line"/>
    </contour>
    <contour>
      <point x="340" y="414" type="curve" smooth="yes"/>
      <point x="341" y="418"/>
      <point x="349" y="425"/>
      <point x="354" y="425" type="curve" smooth="yes"/>
      <point x="359" y="425"/>
      <point x="362" y="419"/>
      <point x="361" y="414" type="curve" smooth="yes"/>
      <point x="360" y="410"/>
      <point x="352" y="403"/>
      <point x="347" y="403" type="curve" smooth="yes"/>
      <point x="342" y="403"/>
      <point x="339" y="409"/>
    </contour>
  </outline>
</glyph>
<glyph name="ldot" format="2">
  <advance width="348"/>
  <unicode hex="0140"/>
  <outline>
    <contour>
      <point x="293" y="779" type="line"/>
      <point x="303" y="779" type="line"/>
      <point x="34" y="0" type="line"/>
      <point x="24" y="0" type="line"/>
    </contour>
    <contour>
      <point x="297" y="396" type="curve" smooth="yes"/>
      <point x="298" y="400"/>
      <point x="306" y="407"/>
      <point x="311" y="407" type="curve" smooth="yes"/>
      <point x="316" y="407"/>
      <point x="319" y="401"/>
      <point x="318" y="396" type="curve" smooth="yes"/>
      <point x="317" y="392"/>
      <point x="309" y="385"/>
      <point x="304" y="385" type="curve" smooth="yes"/>
      <point x="299" y="385"/>
      <point x="296" y="391"/>
    </contour>
  </outline>
</glyph>
<glyph name="lslash" format="2">
  <advance width="150"/>
  <unicode hex="0142"/>
  <outline>
    <contour>
      <point x="70" y="389" type="line"/>
      <point x="65" y="397" type="line"/>
      <point x="287" y="543" type="line"/>
      <point x="292" y="535" type="line"/>
    </contour>
    <contour>
      <point x="284" y="779" type="line"/>
      <point x="293" y="779" type="line"/>
      <point x="25" y="0" type="line"/>
      <point x="15" y="0" type="line"/>
    </contour>
  </outline>
</glyph>
<glyph name="Eng" format="2">
  <advance width="725"/>
  <unicode hex="014A"/>
  <outline>
    <contour>
      <point x="383" y="-220" type="curve" smooth="yes"/>
      <point x="340" y="-220"/>
      <point x="322" y="-192"/>
      <point x="314" y="-172" type="curve"/>
      <point x="324" y="-165" type="line"/>
      <point x="333" y="-185"/>
      <point x="350" y="-210"/>
      <point x="387" y="-210" type="curve" smooth="yes"/>
      <point x="467" y="-210"/>
      <point x="509" y="-138"/>
      <point x="528" y="-82" type="curve" smooth="yes"/>
      <point x="554" y="-2" type="line"/>
      <point x="258" y="678" type="line"/>
      <point x="31" y="0" type="line"/>
      <point x="20" y="0" type="line"/>
      <point x="259" y="715" type="line"/>
      <point x="560" y="17" type="line"/>
      <point x="788" y="700" type="line"/>
      <point x="799" y="700" type="line"/>
      <point x="538" y="-82" type="line" smooth="yes"/>
      <point x="515" y="-151"/>
      <point x="467" y="-220"/>
    </contour>
  </outline>
</glyph>
<glyph name="eng" format="2">
  <advance width="475"/>
  <unicode hex="014B"/>
  <outline>
    <contour>
      <point x="138" y="-220" type="curve" smooth="yes"/>
      <point x="106" y="-220"/>
      <point x="83" y="-203"/>
      <point x="69" y="-172" type="curve"/>
      <point x="79" y="-165" type="line"/>
      <point x="93" y="-195"/>
      <point x="114" y="-210"/>
      <point x="142" y="-210" type="curve" smooth="yes"/>
      <point x="204" y="-210"/>
      <point x="256" y="-162"/>
      <point x="283" y="-82" type="curve" smooth="yes"/>
      <point x="417" y="320" type="line" smooth="yes"/>
      <point x="448" y="412"/>
      <point x="422" y="460"/>
      <point x="341" y="460" type="curve" smooth="yes"/>
      <point x="253" y="460"/>
      <point x="152" y="378"/>
      <point x="119" y="280" type="curve" smooth="yes"/>
      <point x="25" y="0" type="line"/>
      <point x="15" y="0" type="line"/>
      <point x="169" y="460" type="line"/>
      <point x="179" y="460" type="line"/>
      <point x="135" y="328" type="line"/>
      <point x="181" y="413"/>
      <point x="265" y="470"/>
      <point x="344" y="470" type="curve" smooth="yes"/>
      <point x="431" y="470"/>
      <point x="460" y="418"/>
      <point x="427" y="320" type="curve" smooth="yes"/>
      <point x="293" y="-82" type="line" smooth="yes"/>
      <point x="264" y="-170"/>
      <point x="207" y="-220"/>
    </contour>
  </outline>
</glyph>
<glyph name="obreve" format="2">
  <advance width="523"/>
  <unicode hex="014F"/>
  <outline>
    <contour>
      <point x="66" y="230" type="curve" smooth="yes"/>
      <point x="107" y="353"/>
      <point x="230" y="470"/>
      <point x="366" y="469" type="curve" smooth="yes"/>
      <point x="499" y="468"/>
      <point x="543" y="341"/>
      <point x="506" y="230" type="curve" smooth="yes"/>
      <point x="465" y="107"/>
      <point x="341" y="-10"/>
      <point x="205" y="-9" type="curve" smooth="yes"/>
      <point x="72" y="-8"/>
      <point x="29" y="119"/>
    </contour>
    <contour>
      <point x="76" y="230" type="curve" smooth="yes"/>
      <point x="40" y="124"/>
      <point x="79" y="2"/>
      <point x="206" y="1" type="curve" smooth="yes"/>
      <point x="336" y="0"/>
      <point x="456" y="112"/>
      <point x="496" y="230" type="curve" smooth="yes"/>
      <point x="532" y="336"/>
      <point x="493" y="458"/>
      <point x="366" y="459" type="curve" smooth="yes"/>
      <point x="236" y="460"/>
      <point x="116" y="348"/>
    </contour>
    <contour>
      <point x="288" y="670" type="curve"/>
      <point x="297" y="670" type="line"/>
      <point x="285" y="600"/>
      <point x="311" y="542"/>
      <point x="390" y="541" type="curve" smooth="yes"/>
      <point x="474" y="540"/>
      <point x="538" y="600"/>
      <point x="577" y="668" type="curve"/>
      <point x="587" y="668" type="line"/>
      <point x="547" y="593"/>
      <point x="479" y="530"/>
      <point x="389" y="531" type="curve" smooth="yes"/>
      <point x="303" y="532"/>
      <point x="274" y="593"/>
    </contour>
  </outline>
</glyph>
<glyph name="uni0156" format="2">
  <advance width="440"/>
  <unicode hex="0156"/>
  <outline>
    <contour>
      <point x="241" y="317" type="line"/>
      <point x="252" y="317" type="line"/>
      <point x="353" y="0" type="line"/>
      <point x="341" y="0" type="line"/>
    </contour>
    <contour>
      <point x="270" y="699" type="line"/>
      <point x="281" y="699" type="line"/>
      <point x="40" y="0" type="line"/>
      <point x="29" y="0" type="line"/>
    </contour>
    <contour>
      <point x="267" y="689" type="line"/>
      <point x="271" y="700" type="line"/>
      <point x="377" y="700" type="line" smooth="yes"/>
      <point x="490" y="696"/>
      <point x="574" y="626"/>
      <point x="534" y="507" type="curve" smooth="yes"/>
      <point x="493" y="384"/>
      <point x="371" y="318"/>
      <point x="247" y="314" type="curve" smooth="yes"/>
      <point x="139" y="314" type="line"/>
      <point x="143" y="324" type="line"/>
      <point x="248" y="324" type="line" smooth="yes"/>
      <point x="366" y="328"/>
      <point x="484" y="390"/>
      <point x="524" y="507" type="curve" smooth="yes"/>
      <point x="563" y="621"/>
      <point x="483" y="684"/>
      <point x="375" y="689" type="curve" smooth="yes"/>
    </contour>
    <contour>
      <point x="169" y="-62" type="line"/>
      <point x="180" y="-67" type="line"/>
      <point x="-12" y="-313" type="line"/>
      <point x="-18" y="-311" type="line"/>
    </contour>
  </outline>
</glyph>
<glyph name="Scedilla" format="2">
  <advance width="459"/>
  <unicode hex="015E"/>
  <outline>
    <contour>
      <point x="60" y="197" type="line"/>
      <point x="59" y="110"/>
      <point x="77" y="6"/>
      <point x="185" y="4" type="curve" smooth="yes"/>
      <point x="289" y="2"/>
      <point x="381" y="78"/>
      <point x="412" y="175" type="curve" smooth="yes"/>
      <point x="439" y="261"/>
      <point x="393" y="320"/>
      <point x="320" y="359" type="curve" smooth="yes"/>
      <point x="244" y="399"/>
      <point x="177" y="455"/>
      <point x="208" y="550" type="curve" smooth="yes"/>
      <point x="237" y="637"/>
      <point x="332" y="708"/>
      <point x="424" y="707" type="curve" smooth="yes"/>
      <point x="517" y="706"/>
      <point x="546" y="631"/>
      <point x="546" y="550" type="curve"/>
      <point x="536" y="548" type="line"/>
      <point x="536" y="623"/>
      <point x="510" y="695"/>
      <point x="423" y="696" type="curve" smooth="yes"/>
      <point x="337" y="697"/>
      <point x="247" y="631"/>
      <point x="219" y="550" type="curve" smooth="yes"/>
      <point x="187" y="459"/>
      <point x="255" y="406"/>
      <point x="327" y="368" type="curve" smooth="yes"/>
      <point x="404" y="328"/>
      <point x="451" y="265"/>
      <point x="423" y="175" type="curve" smooth="yes"/>
      <point x="391" y="73"/>
      <point x="294" y="-9"/>
      <point x="184" y="-7" type="curve" smooth="yes"/>
      <point x="71" y="-5"/>
      <point x="49" y="100"/>
      <point x="50" y="193" type="curve"/>
    </contour>
    <contour>
      <point x="180" y="-2" type="line"/>
      <point x="192" y="-2" type="line"/>
      <point x="111" y="-76" type="line"/>
      <point x="133" y="-66"/>
      <point x="161" y="-51"/>
      <point x="186" y="-54" type="curve" smooth="yes"/>
      <point x="225" y="-58"/>
      <point x="241" y="-92"/>
      <point x="231" y="-128" type="curve" smooth="yes"/>
      <point x="217" y="-181"/>
      <point x="151" y="-221"/>
      <point x="98" y="-220" type="curve" smooth="yes"/>
      <point x="66" y="-220"/>
      <point x="46" y="-204"/>
      <point x="25" y="-183" type="curve"/>
      <point x="33" y="-177" type="line"/>
      <point x="52" y="-195"/>
      <point x="71" y="-210"/>
      <point x="99" y="-210" type="curve" smooth="yes"/>
      <point x="147" y="-210"/>
      <point x="207" y="-175"/>
      <point x="221" y="-127" type="curve" smooth="yes"/>
      <point x="230" y="-97"/>
      <point x="217" y="-68"/>
      <point x="184" y="-64" type="curve" smooth="yes"/>
      <point x="155" y="-60"/>
      <point x="123" y="-77"/>
      <point x="97" y="-88" type="curve"/>
    </contour>
  </outline>
</glyph>
<glyph name="Ubreve" format="2">
  <advance width="541"/>
  <unicode hex="016C"/>
  <outline>
    <contour>
      <point x="266" y="699" type="line"/>
      <point x="276" y="699" type="line"/>
      <point x="111" y="220" type="line" smooth="yes"/>
      <point x="81" y="124"/>
      <point x="90" y="3"/>
      <point x="216" y="2" type="curve" smooth="yes"/>
      <point x="342" y="1"/>
      <point x="432" y="112"/>
      <point x="472" y="220" type="curve" smooth="yes"/>
      <point x="637" y="699" type="line"/>
      <point x="648" y="699" type="line"/>
      <point x="484" y="220" type="line" smooth="yes"/>
      <point x="442" y="104"/>
      <point x="349" y="-10"/>
      <point x="215" y="-9" type="curve" smooth="yes"/>
      <point x="81" y="-8"/>
      <point x="69" y="116"/>
      <point x="101" y="220" type="curve" smooth="yes"/>
    </contour>
    <contour>
      <point x="378" y="908" type="curve"/>
      <point x="388" y="908" type="line"/>
      <point x="376" y="838"/>
      <point x="402" y="780"/>
      <point x="481" y="779" type="curve" smooth="yes"/>
      <point x="565" y="778"/>
      <point x="628" y="838"/>
      <point x="667" y="906" type="curve"/>
      <point x="677" y="906" type="line"/>
      <point x="637" y="831"/>
      <point x="570" y="768"/>
      <point x="480" y="769" type="curve" smooth="yes"/>
      <point x="394" y="770"/>
      <point x="364" y="831"/>
    </contour>
  </outline>
</glyph>
<glyph name="ycircumflex" format="2">
  <advance width="399"/>
  <unicode hex="0177"/>
  <outline>
    <contour>
      <point x="495" y="459" type="line"/>
      <point x="-22" y="-219" type="line"/>
      <point x="-33" y="-218" type="line"/>
      <point x="151" y="21" type="line"/>
      <point x="112" y="460" type="line"/>
      <point x="122" y="460" type="line"/>
      <point x="161" y="20" type="line"/>
      <point x="149" y="21" type="line"/>
      <point x="484" y="459" type="line"/>
    </contour>
    <contour>
      <point x="359.504" y="663" type="line"/>
      <point x="167.504" y="531" type="line"/>
      <point x="162.504" y="538" type="line"/>
      <point x="361.504" y="675" type="line"/>
      <point x="465.504" y="536" type="line"/>
      <point x="457.504" y="529" type="line"/>
    </contour>
  </outline>
</glyph>
<glyph name="zcaron" format="2">
  <advance width="404"/>
  <unicode hex="017E"/>
  <outline>
    <contour>
      <point x="337" y="543" type="line"/>
      <point x="528" y="676" type="line"/>
      <point x="533" y="668" type="line"/>
      <point x="334" y="531" type="line"/>
      <point x="230" y="670" type="line"/>
      <point x="240" y="678" type="line"/>
    </contour>
    <contour>
      <point x="456" y="449" type="line"/>
      <point x="137" y="450" type="line"/>
      <point x="140" y="460" type="line"/>
      <point x="480" y="459" type="line"/>
      <point x="-13" y="11" type="line"/>
      <point x="335" y="10" type="line"/>
      <point x="332" y="0" type="line"/>
      <point x="-37" y="0" type="line"/>
    </contour>
  </outline>
</glyph>
<glyph name="uni021A" format="2">
  <advance width="405"/>
  <unicode hex="021A"/>
  <outline>
    <contour>
      <point x="200" y="689" type="line"/>
      <point x="203" y="700" type="line"/>
      <point x="572" y="700" type="line"/>
      <point x="568" y="689" type="line"/>
      <point x="389" y="689" type="line"/>
      <point x="153" y="0" type="line"/>
      <point x="142" y="0" type="line"/>
      <point x="378" y="689" type="line"/>
    </contour>
    <contour>
      <point x="173.105" y="-60" type="line"/>
      <point x="182.105" y="-65" type="line"/>
      <point x="-9.89453" y="-311" type="line"/>
      <point x="-15.8945" y="-309" type="line"/>
    </contour>
  </outline>
</glyph>
<glyph name="uni021B" format="2">
  <advance width="178"/>
  <unicode hex="021B"/>
  <outline>
    <contour>
      <point x="121" y="460" type="line"/>
      <point x="272" y="460" type="line"/>
      <point x="268" y="450" type="line"/>
      <point x="117" y="450" type="line"/>
    </contour>
    <contour>
      <point x="243" y="619" type="line"/>
      <point x="253" y="619" type="line"/>
      <point x="39" y="0" type="line"/>
      <point x="29" y="0" type="line"/>
    </contour>
    <contour>
      <point x="59.6055" y="-60" type="line"/>
      <point x="68.6055" y="-65" type="line"/>
      <point x="-123.395" y="-311" type="line"/>
      <point x="-129.395" y="-309" type="line"/>
    </contour>
  </outline>
</glyph>
<glyph name="gravecomb" format="2">
  <unicode hex="0300"/>
  <outline>
    <contour>
      <point x="282" y="535" type="line"/>
      <point x="162" y="692" type="line"/>
      <point x="175" y="700" type="line"/>
      <point x="292" y="540" type="line"/>
    </contour>
  </outline>
</glyph>
<glyph name="uni0302" format="2">
  <unicode hex="0302"/>
  <outline>
    <contour>
      <point x="135" y="583" type="line"/>
      <point x="127" y="590" type="line"/>
      <point x="334" y="730" type="line"/>
      <point x="447" y="590" type="line"/>
      <point x="438" y="583" type="line"/>
      <point x="329" y="718" type="line"/>
      <point x="333" y="718" type="line"/>
    </contour>
  </outline>
</glyph>
<glyph name="tildecomb" format="2">
  <unicode hex="0303"/>
  <outline>
    <contour>
      <point x="156" y="648" type="curve"/>
      <point x="147" y="649" type="line"/>
      <point x="157" y="678"/>
      <point x="185" y="707"/>
      <point x="229" y="707" type="curve" smooth="yes"/>
      <point x="285" y="707"/>
      <point x="282" y="660"/>
      <point x="334" y="660" type="curve" smooth="yes"/>
      <point x="364" y="660"/>
      <point x="383" y="676"/>
      <point x="409" y="708" type="curve"/>
      <point x="417" y="705" type="line"/>
      <point x="389" y="668"/>
      <point x="365" y="652"/>
      <point x="333" y="652" type="curve" smooth="yes"/>
      <point x="279" y="652"/>
      <point x="277" y="699"/>
      <point x="229" y="699" type="curve" smooth="yes"/>
      <point x="197" y="699"/>
      <point x="166" y="678"/>
    </contour>
  </outline>
</glyph>
<glyph name="uni0307" format="2">
  <unicode hex="0307"/>
  <outline>
    <contour>
      <point x="164" y="654" type="curve" smooth="yes"/>
      <point x="158" y="654"/>
      <point x="153" y="659"/>
      <point x="153" y="665" type="curve" smooth="yes"/>
      <point x="153" y="671"/>
      <point x="158" y="676"/>
      <point x="164" y="676" type="curve" smooth="yes"/>
      <point x="170" y="676"/>
      <point x="175" y="671"/>
      <point x="175" y="665" type="curve" smooth="yes"/>
      <point x="175" y="659"/>
      <point x="170" y="654"/>
    </contour>
  </outline>
</glyph>
<glyph name="uni0308" format="2">
  <unicode hex="0308"/>
  <outline>
    <contour>
      <point x="151" y="618" type="curve" smooth="yes"/>
      <point x="145" y="618"/>
      <point x="140" y="623"/>
      <point x="140" y="629" type="curve" smooth="yes"/>
      <point x="140" y="635"/>
      <point x="145" y="640"/>
      <point x="151" y="640" type="curve" smooth="yes"/>
      <point x="157" y="640"/>
      <point x="162" y="635"/>
      <point x="162" y="629" type="curve" smooth="yes"/>
      <point x="162" y="623"/>
      <point x="157" y="618"/>
    </contour>
    <contour>
      <point x="351" y="618" type="curve" smooth="yes"/>
      <point x="345" y="618"/>
      <point x="340" y="623"/>
      <point x="340" y="629" type="curve" smooth="yes"/>
      <point x="340" y="635"/>
      <point x="345" y="640"/>
      <point x="351" y="640" type="curve" smooth="yes"/>
      <point x="357" y="640"/>
      <point x="362" y="635"/>
      <point x="362" y="629" type="curve" smooth="yes"/>
      <point x="362" y="623"/>
      <point x="357" y="618"/>
    </contour>
  </outline>
</glyph>
<glyph name="uni030B" format="2">
  <unicode hex="030B"/>
  <outline>
    <contour>
      <point x="113" y="529" type="line"/>
      <point x="108" y="532" type="line"/>
      <point x="283" y="740" type="line"/>
      <point x="291" y="735" type="line"/>
    </contour>
    <contour>
      <point x="213" y="529" type="line"/>
      <point x="208" y="532" type="line"/>
      <point x="383" y="740" type="line"/>
      <point x="391" y="735" type="line"/>
    </contour>
  </outline>
</glyph>
<glyph name="uni0326" format="2">
  <unicode hex="0326"/>
  <outline>
    <contour>
      <point x="-136" y="-210" type="line"/>
      <point x="-140" y="-209" type="line"/>
      <point x="3" y="-19" type="line"/>
      <point x="9" y="-23" type="line"/>
    </contour>
  </outline>
</glyph>
<glyph name="uni0327" format="2">
  <unicode hex="0327"/>
  <outline>
    <contour>
      <point x="-55" y="-220" type="curve" smooth="yes"/>
      <point x="-89" y="-220"/>
      <point x="-114" y="-208"/>
      <point x="-131" y="-182" type="curve"/>
      <point x="-121" y="-175" type="line"/>
      <point x="-107" y="-199"/>
      <point x="-88" y="-210"/>
      <point x="-55" y="-210" type="curve" smooth="yes"/>
      <point x="2" y="-210"/>
      <point x="57" y="-176"/>
      <point x="74" y="-126" type="curve" smooth="yes"/>
      <point x="87" y="-86"/>
      <point x="70" y="-62"/>
      <point x="32" y="-62" type="curve" smooth="yes"/>
      <point x="6" y="-62"/>
      <point x="-30" y="-72"/>
      <point x="-57" y="-88" type="curve"/>
      <point x="27" y="0" type="line"/>
      <point x="38" y="0" type="line"/>
      <point x="-32" y="-74" type="line"/>
      <point x="-44" y="-77" type="line"/>
      <point x="-26" y="-63"/>
      <point x="10" y="-52"/>
      <point x="36" y="-52" type="curve" smooth="yes"/>
      <point x="80" y="-52"/>
      <point x="100" y="-84"/>
      <point x="86" y="-126" type="curve" smooth="yes"/>
      <point x="68" y="-180"/>
      <point x="7" y="-220"/>
    </contour>
  </outline>
</glyph>
<glyph name="uni03A9" format="2">
  <advance width="600"/>
  <unicode hex="03A9"/>
  <outline>
    <contour>
      <point x="-4" y="0" type="line"/>
      <point x="192" y="0" type="line"/>
      <point x="193" y="2" type="line"/>
      <point x="108" y="55"/>
      <point x="72" y="192"/>
      <point x="112" y="312" type="curve" smooth="yes"/>
      <point x="158" y="448"/>
      <point x="288" y="550"/>
      <point x="414" y="550" type="curve" smooth="yes"/>
      <point x="540" y="550"/>
      <point x="601.839" y="447.713"/>
      <point x="555" y="312" type="curve" smooth="yes"/>
      <point x="516" y="199"/>
      <point x="389" y="54"/>
      <point x="269" y="2" type="curve"/>
      <point x="268" y="0" type="line"/>
      <point x="464" y="0" type="line"/>
      <point x="467" y="8" type="line"/>
      <point x="299" y="8" type="line"/>
      <point x="414" y="72"/>
      <point x="527" y="200"/>
      <point x="564" y="312" type="curve" smooth="yes"/>
      <point x="611" y="453"/>
      <point x="546" y="558"/>
      <point x="414" y="558" type="curve" smooth="yes"/>
      <point x="283" y="558"/>
      <point x="150" y="453"/>
      <point x="103" y="312" type="curve" smooth="yes"/>
      <point x="66" y="200"/>
      <point x="95" y="72"/>
      <point x="168" y="8" type="curve"/>
      <point x="-1" y="8" type="line"/>
    </contour>
  </outline>
</glyph>
<glyph name="uni0401" format="2">
  <advance width="517"/>
  <unicode hex="0401"/>
  <outline>
    <contour>
      <point x="32" y="0" type="line"/>
      <point x="35" y="10" type="line"/>
      <point x="354" y="10" type="line"/>
      <point x="351" y="0" type="line"/>
    </contour>
    <contour>
      <point x="268" y="690" type="line"/>
      <point x="271" y="700" type="line"/>
      <point x="589" y="700" type="line"/>
      <point x="586" y="690" type="line"/>
    </contour>
    <contour>
      <point x="163" y="384" type="line"/>
      <point x="167" y="394" type="line"/>
      <point x="466" y="394" type="line"/>
      <point x="463" y="384" type="line"/>
    </contour>
    <contour>
      <point x="270" y="699" type="line"/>
      <point x="281" y="699" type="line"/>
      <point x="40" y="0" type="line"/>
      <point x="29" y="0" type="line"/>
    </contour>
    <contour>
      <point x="562" y="854" type="curve" smooth="yes"/>
      <point x="563" y="858"/>
      <point x="571" y="865"/>
      <point x="576" y="865" type="curve" smooth="yes"/>
      <point x="581" y="865"/>
      <point x="584" y="859"/>
      <point x="583" y="854" type="curve" smooth="yes"/>
      <point x="582" y="850"/>
      <point x="574" y="843"/>
      <point x="569" y="843" type="curve" smooth="yes"/>
      <point x="564" y="843"/>
      <point x="561" y="849"/>
    </contour>
    <contour>
      <point x="373" y="854" type="curve" smooth="yes"/>
      <point x="374" y="858"/>
      <point x="382" y="865"/>
      <point x="387" y="865" type="curve" smooth="yes"/>
      <point x="392" y="865"/>
      <point x="396" y="859"/>
      <point x="395" y="854" type="curve" smooth="yes"/>
      <point x="394" y="850"/>
      <point x="386" y="843"/>
      <point x="381" y="843" type="curve" smooth="yes"/>
      <point x="376" y="843"/>
      <point x="372" y="849"/>
    </contour>
  </outline>
</glyph>
<glyph name="uni0414" format="2">
  <advance width="748"/>
  <unicode hex="0414"/>
  <outline>
    <contour>
      <point x="560" y="705" type="line"/>
      <point x="63" y="8" type="line"/>
      <point x="51" y="8" type="line"/>
      <point x="569" y="735" type="line"/>
      <point x="589" y="7" type="line"/>
      <point x="577" y="7" type="line"/>
    </contour>
    <contour>
      <point x="642" y="0" type="line"/>
      <point x="-6" y="0" type="line"/>
      <point x="-46" y="-109" type="line"/>
      <point x="-56" y="-109" type="line"/>
      <point x="-13" y="10" type="line"/>
      <point x="656" y="10" type="line"/>
      <point x="613" y="-109" type="line"/>
      <point x="602" y="-109" type="line"/>
    </contour>
  </outline>
</glyph>
<glyph name="uni0423" format="2">
  <advance width="451"/>
  <unicode hex="0423"/>
  <outline>
    <contour>
      <point x="638" y="699" type="line"/>
      <point x="87" y="0" type="line"/>
      <point x="77" y="0" type="line"/>
      <point x="255" y="225" type="line"/>
      <point x="185" y="700" type="line"/>
      <point x="194" y="700" type="line"/>
      <point x="262" y="230" type="line"/>
      <point x="257" y="231" type="line"/>
      <point x="628" y="699" type="line"/>
    </contour>
  </outline>
</glyph>
<glyph name="uni0426" format="2">
  <advance width="644"/>
  <unicode hex="0426"/>
  <outline>
    <contour>
      <point x="33" y="10" type="line"/>
      <point x="466" y="10" type="line"/>
      <point x="703" y="699" type="line"/>
      <point x="713" y="699" type="line"/>
      <point x="476" y="10" type="line"/>
      <point x="557" y="10" type="line"/>
      <point x="514" y="-109" type="line"/>
      <point x="504" y="-109" type="line"/>
      <point x="544" y="0" type="line"/>
      <point x="20" y="0" type="line"/>
      <point x="261" y="699" type="line"/>
      <point x="271" y="699" type="line"/>
    </contour>
  </outline>
</glyph>
<glyph name="uni0427" format="2">
  <advance width="508"/>
  <unicode hex="0427"/>
  <outline>
    <contour>
      <point x="314" y="280" type="line"/>
      <point x="317" y="290" type="line"/>
      <point x="475" y="290" type="line"/>
      <point x="472" y="280" type="line"/>
    </contour>
    <contour>
      <point x="609" y="699" type="line"/>
      <point x="619" y="699" type="line"/>
      <point x="378" y="0" type="line"/>
      <point x="368" y="0" type="line"/>
    </contour>
    <contour>
      <point x="271" y="699" type="line"/>
      <point x="207" y="518" type="line" smooth="yes"/>
      <point x="167.281" y="405.669"/>
      <point x="201" y="290"/>
      <point x="317" y="290" type="curve"/>
      <point x="314" y="280" type="line"/>
      <point x="192" y="280"/>
      <point x="157" y="404"/>
      <point x="197" y="518" type="curve" smooth="yes"/>
      <point x="261" y="699" type="line"/>
    </contour>
  </outline>
</glyph>
<glyph name="uni042B" format="2">
  <advance width="644"/>
  <unicode hex="042B"/>
  <outline>
    <contour>
      <point x="741" y="699" type="line"/>
      <point x="751" y="699" type="line"/>
      <point x="509" y="0" type="line"/>
      <point x="499" y="0" type="line"/>
    </contour>
    <contour>
      <point x="256" y="699" type="line"/>
      <point x="266" y="699" type="line"/>
      <point x="25" y="0" type="line"/>
      <point x="15" y="0" type="line"/>
    </contour>
    <contour>
      <point x="161" y="410" type="line"/>
      <point x="164" y="420" type="line"/>
      <point x="298" y="420" type="line" smooth="yes"/>
      <point x="417" y="420"/>
      <point x="492" y="326"/>
      <point x="452" y="208" type="curve" smooth="yes"/>
      <point x="410" y="84"/>
      <point x="285" y="0"/>
      <point x="157" y="0" type="curve" smooth="yes"/>
      <point x="21" y="0" type="line"/>
      <point x="24" y="10" type="line"/>
      <point x="158" y="10" type="line" smooth="yes"/>
      <point x="280" y="10"/>
      <point x="402" y="92"/>
      <point x="442" y="210" type="curve" smooth="yes"/>
      <point x="480" y="322"/>
      <point x="409" y="410"/>
      <point x="296" y="410" type="curve" smooth="yes"/>
    </contour>
  </outline>
</glyph>
<glyph name="uni0437" format="2">
  <advance width="447"/>
  <unicode hex="0437"/>
  <outline>
    <contour>
      <point x="257" y="245" type="curve"/>
      <point x="260" y="251" type="line"/>
      <point x="326" y="254"/>
      <point x="409" y="262"/>
      <point x="437" y="334" type="curve" smooth="yes"/>
      <point x="464" y="404"/>
      <point x="407" y="459"/>
      <point x="337" y="459" type="curve" smooth="yes"/>
      <point x="252.994" y="459"/>
      <point x="189" y="396"/>
      <point x="150" y="328" type="curve"/>
      <point x="140" y="328" type="line"/>
      <point x="180" y="401"/>
      <point x="248" y="469"/>
      <point x="338" y="469" type="curve" smooth="yes"/>
      <point x="412" y="469"/>
      <point x="475" y="409"/>
      <point x="447" y="333" type="curve" smooth="yes"/>
      <point x="419" y="255"/>
      <point x="328" y="248"/>
    </contour>
    <contour>
      <point x="177" y="-9" type="curve" smooth="yes"/>
      <point x="82" y="-8"/>
      <point x="44" y="58"/>
      <point x="52" y="145" type="curve"/>
      <point x="62" y="145" type="line"/>
      <point x="55" y="64"/>
      <point x="89" y="1"/>
      <point x="178" y="1" type="curve" smooth="yes"/>
      <point x="259" y="1"/>
      <point x="364.192" y="52.9418"/>
      <point x="389" y="135" type="curve" smooth="yes"/>
      <point x="415" y="221"/>
      <point x="318" y="239"/>
      <point x="256" y="243" type="curve"/>
      <point x="259" y="249" type="line"/>
      <point x="326" y="245"/>
      <point x="425.167" y="225.951"/>
      <point x="398" y="134" type="curve" smooth="yes"/>
      <point x="372" y="46"/>
      <point x="264" y="-10"/>
    </contour>
  </outline>
</glyph>
<glyph name="uni043B" format="2">
  <advance width="459"/>
  <unicode hex="043B"/>
  <outline>
    <contour>
      <point x="488" y="460" type="line"/>
      <point x="329" y="0" type="line"/>
      <point x="319" y="0" type="line"/>
      <point x="474" y="450" type="line"/>
      <point x="188" y="450" type="line"/>
      <point x="89" y="160" type="line" smooth="yes"/>
      <point x="63" y="89"/>
      <point x="29" y="25"/>
      <point x="-46" y="1" type="curve"/>
      <point x="-42" y="11" type="line"/>
      <point x="25" y="36"/>
      <point x="55" y="95"/>
      <point x="78" y="160" type="curve" smooth="yes"/>
      <point x="181" y="460" type="line"/>
    </contour>
  </outline>
</glyph>
<glyph name="uni0445" format="2">
  <advance width="395"/>
  <unicode hex="0445"/>
  <outline>
    <contour>
      <point x="428" y="458" type="line"/>
      <point x="442" y="458" type="line"/>
      <point x="211" y="237" type="line"/>
      <point x="294" y="0" type="line"/>
      <point x="280" y="0" type="line"/>
      <point x="204" y="228" type="line"/>
      <point x="-31" y="0" type="line"/>
      <point x="-46" y="0" type="line"/>
      <point x="200" y="237" type="line"/>
      <point x="121" y="460" type="line"/>
      <point x="135" y="460" type="line"/>
      <point x="207" y="246" type="line"/>
    </contour>
  </outline>
</glyph>
<glyph name="uni044E" format="2">
  <advance width="711"/>
  <unicode hex="044E"/>
  <outline>
    <contour>
      <point x="103" y="235" type="line"/>
      <point x="106" y="245" type="line"/>
      <point x="267" y="245" type="line"/>
      <point x="263" y="235" type="line"/>
    </contour>
    <contour>
      <point x="174" y="459" type="line"/>
      <point x="184" y="459" type="line"/>
      <point x="25" y="0" type="line"/>
      <point x="15" y="0" type="line"/>
    </contour>
    <contour>
      <point x="254" y="230" type="curve" smooth="yes"/>
      <point x="295" y="353"/>
      <point x="419" y="470"/>
      <point x="555" y="469" type="curve" smooth="yes"/>
      <point x="688" y="468"/>
      <point x="731" y="341"/>
      <point x="694" y="230" type="curve" smooth="yes"/>
      <point x="653" y="107"/>
      <point x="529" y="-10"/>
      <point x="393" y="-9" type="curve" smooth="yes"/>
      <point x="260" y="-8"/>
      <point x="217" y="119"/>
    </contour>
    <contour>
      <point x="264" y="230" type="curve" smooth="yes"/>
      <point x="228" y="124"/>
      <point x="267" y="2"/>
      <point x="394" y="1" type="curve" smooth="yes"/>
      <point x="524" y="0"/>
      <point x="644" y="112"/>
      <point x="684" y="230" type="curve" smooth="yes"/>
      <point x="720" y="336"/>
      <point x="681" y="458"/>
      <point x="554" y="459" type="curve" smooth="yes"/>
      <point x="424" y="460"/>
      <point x="304" y="348"/>
    </contour>
  </outline>
</glyph>
<glyph name="uni045E" format="2">
  <advance width="413"/>
  <unicode hex="045E"/>
  <outline>
    <contour>
      <point x="495" y="459" type="line"/>
      <point x="-22" y="-219" type="line"/>
      <point x="-33" y="-218" type="line"/>
      <point x="151" y="21" type="line"/>
      <point x="112" y="460" type="line"/>
      <point x="124" y="460" type="line"/>
      <point x="160" y="20" type="line"/>
      <point x="149" y="21" type="line"/>
      <point x="484" y="459" type="line"/>
    </contour>
    <contour>
      <point x="233" y="670" type="curve"/>
      <point x="243" y="670" type="line"/>
      <point x="231" y="600"/>
      <point x="257" y="542"/>
      <point x="336" y="541" type="curve" smooth="yes"/>
      <point x="420" y="540"/>
      <point x="483" y="600"/>
      <point x="522" y="668" type="curve"/>
      <point x="532" y="668" type="line"/>
      <point x="492" y="593"/>
      <point x="425" y="530"/>
      <point x="335" y="531" type="curve" smooth="yes"/>
      <point x="249" y="532"/>
      <point x="219" y="593"/>
    </contour>
  </outline>
</glyph>
<glyph name="uni1E9E" format="2">
  <advance width="666"/>
  <unicode hex="1E9E"/>
  <outline>
    <contour>
      <point x="342" y="-10" type="curve" smooth="yes"/>
      <point x="468" y="-10"/>
      <point x="574" y="62"/>
      <point x="574" y="196" type="curve" smooth="yes"/>
      <point x="574" y="354"/>
      <point x="495" y="340"/>
      <point x="495" y="396" type="curve" smooth="yes"/>
      <point x="495" y="472"/>
      <point x="668" y="431"/>
      <point x="668" y="583" type="curve" smooth="yes"/>
      <point x="668" y="643"/>
      <point x="621" y="708"/>
      <point x="509" y="708" type="curve" smooth="yes"/>
      <point x="366" y="708"/>
      <point x="224.306" y="614.271"/>
      <point x="171" y="454" type="curve" smooth="yes"/>
      <point x="20" y="0" type="line"/>
      <point x="32" y="0" type="line"/>
      <point x="183" y="448" type="line" smooth="yes"/>
      <point x="234.454" y="600.657"/>
      <point x="364" y="698"/>
      <point x="509" y="698" type="curve" smooth="yes"/>
      <point x="621" y="698"/>
      <point x="656" y="633"/>
      <point x="656" y="583" type="curve" smooth="yes"/>
      <point x="656" y="437"/>
      <point x="483" y="482"/>
      <point x="483" y="396" type="curve" smooth="yes"/>
      <point x="483" y="328"/>
      <point x="562" y="350"/>
      <point x="562" y="196" type="curve" smooth="yes"/>
      <point x="562" y="73"/>
      <point x="468" y="0"/>
      <point x="342" y="0" type="curve" smooth="yes"/>
      <point x="282" y="0"/>
      <point x="244" y="16"/>
      <point x="186" y="62" type="curve"/>
      <point x="178" y="55" type="line"/>
      <point x="228" y="15"/>
      <point x="266" y="-10"/>
    </contour>
  </outline>
</glyph>
<glyph name="endash" format="2">
  <advance width="696"/>
  <unicode hex="2013"/>
  <outline>
    <contour>
      <point x="102" y="265" type="line"/>
      <point x="105" y="275" type="line"/>
      <point x="670" y="275" type="line"/>
      <point x="667" y="265" type="line"/>
    </contour>
  </outline>
</glyph>
<glyph name="quoteright" format="2">
  <advance width="230"/>
  <unicode hex="2019"/>
  <outline>
    <contour>
      <point x="349" y="698" type="line"/>
      <point x="361" y="698" type="line"/>
      <point x="189" y="472" type="line"/>
      <point x="179" y="472" type="line"/>
    </contour>
  </outline>
</glyph>
<glyph name="quotesinglbase" format="2">
  <advance width="230"/>
  <unicode hex="201A"/>
  <outline>
    <contour>
      <point x="118" y="78" type="line"/>
      <point x="131" y="78" type="line"/>
      <point x="-41" y="-148" type="line"/>
      <point x="-51" y="-148" type="line"/>
    </contour>
  </outline>
</glyph>
<glyph name="uni2031" format="2">
  <advance width="1355"/>
  <unicode hex="2031"/>
  <outline>
    <contour>
      <point x="1037" y="141" type="curve" smooth="yes"/>
      <point x="1063" y="218"/>
      <point x="1143" y="290"/>
      <point x="1228" y="289" type="curve" smooth="yes"/>
      <point x="1312" y="288"/>
      <point x="1341" y="211"/>
      <point x="1317" y="139" type="curve" smooth="yes"/>
      <point x="1291" y="62"/>
      <point x="1212" y="-10"/>
      <point x="1127" y="-9" type="curve" smooth="yes"/>
      <point x="1043" y="-8"/>
      <point x="1013" y="69"/>
    </contour>
    <contour>
      <point x="1047" y="140" type="curve" smooth="yes"/>
      <point x="1024" y="75"/>
      <point x="1050" y="1"/>
      <point x="1128" y="0" type="curve" smooth="yes"/>
      <point x="1207" y="-1"/>
      <point x="1283" y="68"/>
      <point x="1308" y="140" type="curve" smooth="yes"/>
      <point x="1331" y="206"/>
      <point x="1303" y="278"/>
      <point x="1226" y="279" type="curve" smooth="yes"/>
      <point x="1147" y="280"/>
      <point x="1072" y="212"/>
    </contour>
    <contour>
      <point x="689" y="141" type="curve" smooth="yes"/>
      <point x="715" y="218"/>
      <point x="794" y="290"/>
      <point x="879" y="289" type="curve" smooth="yes"/>
      <point x="963" y="288"/>
      <point x="993" y="211"/>
      <point x="969" y="139" type="curve" smooth="yes"/>
      <point x="943" y="62"/>
      <point x="864" y="-10"/>
      <point x="779" y="-9" type="curve" smooth="yes"/>
      <point x="695" y="-8"/>
      <point x="665" y="69"/>
    </contour>
    <contour>
      <point x="699" y="140" type="curve" smooth="yes"/>
      <point x="676" y="75"/>
      <point x="702" y="1"/>
      <point x="780" y="0" type="curve" smooth="yes"/>
      <point x="859" y="-1"/>
      <point x="934" y="68"/>
      <point x="959" y="140" type="curve" smooth="yes"/>
      <point x="982" y="206"/>
      <point x="955" y="278"/>
      <point x="878" y="279" type="curve" smooth="yes"/>
      <point x="799" y="280"/>
      <point x="724" y="212"/>
    </contour>
    <contour>
      <point x="169" y="561" type="curve" smooth="yes"/>
      <point x="195" y="638"/>
      <point x="274" y="710"/>
      <point x="359" y="709" type="curve" smooth="yes"/>
      <point x="443" y="708"/>
      <point x="473" y="631"/>
      <point x="449" y="559" type="curve" smooth="yes"/>
      <point x="423" y="482"/>
      <point x="344" y="410"/>
      <point x="259" y="411" type="curve" smooth="yes"/>
      <point x="175" y="412"/>
      <point x="145" y="489"/>
    </contour>
    <contour>
      <point x="179" y="560" type="curve" smooth="yes"/>
      <point x="156" y="495"/>
      <point x="182" y="421"/>
      <point x="260" y="420" type="curve" smooth="yes"/>
      <point x="339" y="419"/>
      <point x="414" y="488"/>
      <point x="439" y="560" type="curve" smooth="yes"/>
      <point x="462" y="626"/>
      <point x="435" y="698"/>
      <point x="358" y="699" type="curve" smooth="yes"/>
      <point x="279" y="700"/>
      <point x="204" y="632"/>
    </contour>
    <contour>
      <point x="341" y="141" type="curve" smooth="yes"/>
      <point x="367" y="218"/>
      <point x="446" y="290"/>
      <point x="531" y="289" type="curve" smooth="yes"/>
      <point x="615" y="288"/>
      <point x="645" y="211"/>
      <point x="621" y="139" type="curve" smooth="yes"/>
      <point x="595" y="62"/>
      <point x="516" y="-10"/>
      <point x="431" y="-9" type="curve" smooth="yes"/>
      <point x="347" y="-8"/>
      <point x="317" y="69"/>
    </contour>
    <contour>
      <point x="351" y="140" type="curve" smooth="yes"/>
      <point x="328" y="75"/>
      <point x="353" y="1"/>
      <point x="431" y="0" type="curve" smooth="yes"/>
      <point x="510" y="-1"/>
      <point x="586" y="68"/>
      <point x="611" y="140" type="curve" smooth="yes"/>
      <point x="634" y="206"/>
      <point x="607" y="278"/>
      <point x="530" y="279" type="curve" smooth="yes"/>
      <point x="451" y="280"/>
      <point x="376" y="212"/>
    </contour>
    <contour>
      <point x="724" y="698" type="line"/>
      <point x="736" y="698" type="line"/>
      <point x="66" y="0" type="line"/>
      <point x="53" y="0" type="line"/>
    </contour>
  </outline>
</glyph>
<glyph name="guilsinglright" format="2">
  <advance width="329"/>
  <unicode hex="203A"/>
  <outline>
    <contour>
      <point x="316" y="255" type="line"/>
      <point x="199" y="483" type="line"/>
      <point x="208" y="490" type="line"/>
      <point x="325" y="253" type="line"/>
      <point x="48" y="22" type="line"/>
      <point x="43" y="29" type="line"/>
    </contour>
  </outline>
</glyph>
<glyph name="uni2075" format="2">
  <advance width="320"/>
  <unicode hex="2075"/>
  <outline>
    <contour>
      <point x="366" y="415" type="curve" smooth="yes"/>
      <point x="342" y="342"/>
      <point x="271" y="272"/>
      <point x="190" y="273" type="curve" smooth="yes"/>
      <point x="133" y="273"/>
      <point x="111" y="310"/>
      <point x="101" y="360" type="curve"/>
      <point x="107" y="363" type="line"/>
      <point x="117" y="315"/>
      <point x="136" y="280"/>
      <point x="190" y="279" type="curve" smooth="yes"/>
      <point x="268" y="278"/>
      <point x="337" y="346"/>
      <point x="360" y="416" type="curve" smooth="yes"/>
      <point x="378" y="470"/>
      <point x="364" y="536"/>
      <point x="297" y="539" type="curve" smooth="yes"/>
      <point x="244" y="542"/>
      <point x="197" y="506"/>
      <point x="157" y="476" type="curve"/>
      <point x="172" y="494" type="line"/>
      <point x="203" y="524"/>
      <point x="253" y="547"/>
      <point x="297" y="545" type="curve" smooth="yes"/>
      <point x="368" y="542"/>
      <point x="385" y="473"/>
    </contour>
    <contour>
      <point x="289" y="691" type="line"/>
      <point x="172" y="494" type="line"/>
      <point x="155" y="476" type="line"/>
      <point x="286" y="697" type="line"/>
      <point x="472" y="698" type="line"/>
      <point x="470" y="692" type="line"/>
    </contour>
  </outline>
</glyph>
<glyph name="uni2077" format="2">
  <advance width="331"/>
  <unicode hex="2077"/>
  <outline>
    <contour>
      <point x="216" y="694" type="line"/>
      <point x="217" y="700" type="line"/>
      <point x="484" y="699" type="line"/>
      <point x="130" y="282" type="line"/>
      <point x="123" y="282" type="line"/>
      <point x="471" y="693" type="line"/>
    </contour>
  </outline>
</glyph>
<glyph name="uni2079" format="2">
  <advance width="312"/>
  <unicode hex="2079"/>
  <outline>
    <contour>
      <point x="410" y="570" type="curve" smooth="yes"/>
      <point x="431" y="630"/>
      <point x="411" y="700"/>
      <point x="338" y="701" type="curve" smooth="yes"/>
      <point x="265" y="702"/>
      <point x="196" y="636"/>
      <point x="174" y="570" type="curve" smooth="yes"/>
      <point x="156" y="515"/>
      <point x="176" y="450"/>
      <point x="242" y="447" type="curve" smooth="yes"/>
      <point x="314" y="444"/>
      <point x="387" y="505"/>
    </contour>
    <contour>
      <point x="158" y="284" type="line"/>
      <point x="150" y="285" type="line"/>
      <point x="360" y="487" type="line"/>
      <point x="361" y="488" type="line"/>
      <point x="326" y="464"/>
      <point x="287" y="438"/>
      <point x="243" y="440" type="curve" smooth="yes"/>
      <point x="173" y="442"/>
      <point x="149" y="512"/>
      <point x="168" y="571" type="curve" smooth="yes"/>
      <point x="190" y="641"/>
      <point x="262" y="709"/>
      <point x="338" y="707" type="curve" smooth="yes"/>
      <point x="415" y="705"/>
      <point x="438" y="635"/>
      <point x="416" y="570" type="curve" smooth="yes"/>
      <point x="404" y="534"/>
      <point x="377" y="502"/>
      <point x="351" y="475" type="curve" smooth="yes"/>
    </contour>
  </outline>
</glyph>
<glyph name="uni2082" format="2">
  <advance width="312"/>
  <unicode hex="2082"/>
  <outline>
    <contour>
      <point x="-26" y="3" type="line"/>
      <point x="223" y="203" type="line" smooth="yes"/>
      <point x="259" y="233"/>
      <point x="300" y="268"/>
      <point x="316" y="314" type="curve" smooth="yes"/>
      <point x="334" y="365"/>
      <point x="313" y="420"/>
      <point x="253" y="422" type="curve" smooth="yes"/>
      <point x="172" y="425"/>
      <point x="121" y="343"/>
      <point x="90" y="280" type="curve"/>
      <point x="84" y="280" type="line"/>
      <point x="116" y="346"/>
      <point x="168" y="431"/>
      <point x="253" y="428" type="curve" smooth="yes"/>
      <point x="316" y="426"/>
      <point x="340" y="369"/>
      <point x="322" y="314" type="curve" smooth="yes"/>
      <point x="307" y="267"/>
      <point x="265" y="230"/>
      <point x="228" y="199" type="curve" smooth="yes"/>
      <point x="-8" y="9" type="line"/>
      <point x="233" y="8" type="line"/>
      <point x="231" y="2" type="line"/>
    </contour>
  </outline>
</glyph>
<glyph name="uni2084" format="2">
  <advance width="349"/>
  <unicode hex="2084"/>
  <outline>
    <contour>
      <point x="7" y="84" type="line"/>
      <point x="14" y="90" type="line"/>
      <point x="221" y="90" type="line"/>
      <point x="223" y="90" type="line"/>
      <point x="288" y="90" type="line"/>
      <point x="286" y="84" type="line"/>
    </contour>
    <contour>
      <point x="13" y="86" type="line"/>
      <point x="6" y="86" type="line"/>
      <point x="339" y="419" type="line"/>
      <point x="341" y="419" type="line"/>
      <point x="195" y="0" type="line"/>
      <point x="188" y="0" type="line"/>
      <point x="218" y="85" type="line"/>
      <point x="219" y="88" type="line"/>
      <point x="327" y="397" type="line"/>
    </contour>
  </outline>
</glyph>
<glyph name="uni2088" format="2">
  <advance width="284"/>
  <unicode hex="2088"/>
  <outline>
    <contour>
      <point x="100" y="326" type="curve" smooth="yes"/>
      <point x="117" y="377"/>
      <point x="178" y="426"/>
      <point x="233" y="425" type="curve" smooth="yes"/>
      <point x="287" y="424"/>
      <point x="314" y="372"/>
      <point x="298" y="324" type="curve" smooth="yes"/>
      <point x="281" y="273"/>
      <point x="219" y="220"/>
      <point x="164" y="222" type="curve" smooth="yes"/>
      <point x="110" y="223"/>
      <point x="85" y="279"/>
    </contour>
    <contour>
      <point x="106" y="326" type="curve" smooth="yes"/>
      <point x="91" y="283"/>
      <point x="113" y="228"/>
      <point x="163" y="226" type="curve" smooth="yes"/>
      <point x="214" y="224"/>
      <point x="276" y="277"/>
      <point x="292" y="324" type="curve" smooth="yes"/>
      <point x="307" y="370"/>
      <point x="284" y="417"/>
      <point x="233" y="419" type="curve" smooth="yes"/>
      <point x="181" y="421"/>
      <point x="122" y="374"/>
    </contour>
    <contour>
      <point x="16" y="112" type="curve" smooth="yes"/>
      <point x="36" y="169"/>
      <point x="102" y="223"/>
      <point x="164" y="222" type="curve" smooth="yes"/>
      <point x="225" y="221"/>
      <point x="252" y="164"/>
      <point x="236" y="110" type="curve" smooth="yes"/>
      <point x="218" y="49"/>
      <point x="151" y="-7"/>
      <point x="86" y="-5" type="curve" smooth="yes"/>
      <point x="21" y="-3"/>
      <point x="-4" y="55"/>
    </contour>
    <contour>
      <point x="22" y="111" type="curve" smooth="yes"/>
      <point x="3" y="58"/>
      <point x="24" y="2"/>
      <point x="86" y="1" type="curve" smooth="yes"/>
      <point x="148" y="-1"/>
      <point x="212" y="53"/>
      <point x="230" y="111" type="curve" smooth="yes"/>
      <point x="246" y="161"/>
      <point x="222" y="216"/>
      <point x="164" y="218" type="curve" smooth="yes"/>
      <point x="104" y="220"/>
      <point x="42" y="165"/>
    </contour>
  </outline>
</glyph>
<glyph name="uni2155" format="2">
  <advance width="700"/>
  <unicode hex="2155"/>
  <outline>
    <contour>
      <point x="769" y="698" type="line"/>
      <point x="781" y="698" type="line"/>
      <point x="2" y="0" type="line"/>
      <point x="-10" y="0" type="line"/>
    </contour>
    <contour>
      <point x="193" y="667" type="line"/>
      <point x="195" y="674" type="line"/>
      <point x="307" y="697" type="line"/>
      <point x="159" y="275" type="line"/>
      <point x="153" y="275" type="line"/>
      <point x="296" y="688" type="line"/>
    </contour>
    <contour>
      <point x="636" y="135" type="curve" smooth="yes"/>
      <point x="612" y="62"/>
      <point x="540" y="-8"/>
      <point x="459" y="-7" type="curve" smooth="yes"/>
      <point x="402" y="-7"/>
      <point x="381" y="30"/>
      <point x="371" y="80" type="curve"/>
      <point x="376" y="83" type="line"/>
      <point x="386" y="35"/>
      <point x="405" y="0"/>
      <point x="459" y="-1" type="curve" smooth="yes"/>
      <point x="537" y="-2"/>
      <point x="607" y="66"/>
      <point x="630" y="136" type="curve" smooth="yes"/>
      <point x="648" y="190"/>
      <point x="633" y="256"/>
      <point x="566" y="259" type="curve" smooth="yes"/>
      <point x="513" y="262"/>
      <point x="466" y="226"/>
      <point x="426" y="196" type="curve"/>
      <point x="442" y="214" type="line"/>
      <point x="473" y="244"/>
      <point x="522" y="267"/>
      <point x="566" y="265" type="curve" smooth="yes"/>
      <point x="637" y="262"/>
      <point x="655" y="193"/>
    </contour>
    <contour>
      <point x="559" y="411" type="line"/>
      <point x="441" y="214" type="line"/>
      <point x="425" y="196" type="line"/>
      <point x="556" y="417" type="line"/>
      <point x="742" y="418" type="line"/>
      <point x="740" y="412" type="line"/>
    </contour>
  </outline>
</glyph>
<glyph name="uni2156" format="2">
  <advance width="819"/>
  <unicode hex="2156"/>
  <outline>
    <contour>
      <point x="889" y="698" type="line"/>
      <point x="901" y="698" type="line"/>
      <point x="121" y="0" type="line"/>
      <point x="109" y="0" type="line"/>
    </contour>
    <contour>
      <point x="73" y="283" type="line"/>
      <point x="321" y="483" type="line" smooth="yes"/>
      <point x="357" y="513"/>
      <point x="398" y="548"/>
      <point x="414" y="594" type="curve" smooth="yes"/>
      <point x="432" y="645"/>
      <point x="412" y="700"/>
      <point x="352" y="702" type="curve" smooth="yes"/>
      <point x="271" y="705"/>
      <point x="219" y="623"/>
      <point x="188" y="560" type="curve"/>
      <point x="182" y="560" type="line"/>
      <point x="214" y="626"/>
      <point x="267" y="711"/>
      <point x="352" y="708" type="curve" smooth="yes"/>
      <point x="415" y="706"/>
      <point x="438" y="649"/>
      <point x="420" y="594" type="curve" smooth="yes"/>
      <point x="405" y="547"/>
      <point x="363" y="510"/>
      <point x="326" y="479" type="curve" smooth="yes"/>
      <point x="90" y="289" type="line"/>
      <point x="331" y="288" type="line"/>
      <point x="329" y="282" type="line"/>
    </contour>
    <contour>
      <point x="755" y="135" type="curve" smooth="yes"/>
      <point x="731" y="62"/>
      <point x="660" y="-8"/>
      <point x="579" y="-7" type="curve" smooth="yes"/>
      <point x="522" y="-7"/>
      <point x="500" y="30"/>
      <point x="490" y="80" type="curve"/>
      <point x="496" y="83" type="line"/>
      <point x="506" y="35"/>
      <point x="525" y="0"/>
      <point x="579" y="-1" type="curve" smooth="yes"/>
      <point x="657" y="-2"/>
      <point x="726" y="66"/>
      <point x="749" y="136" type="curve" smooth="yes"/>
      <point x="767" y="190"/>
      <point x="753" y="256"/>
      <point x="686" y="259" type="curve" smooth="yes"/>
      <point x="633" y="262"/>
      <point x="586" y="226"/>
      <point x="546" y="196" type="curve"/>
      <point x="561" y="214" type="line"/>
      <point x="592" y="244"/>
      <point x="642" y="267"/>
      <point x="686" y="265" type="curve" smooth="yes"/>
      <point x="757" y="262"/>
      <point x="774" y="193"/>
    </contour>
    <contour>
      <point x="678" y="411" type="line"/>
      <point x="561" y="214" type="line"/>
      <point x="544" y="196" type="line"/>
      <point x="675" y="417" type="line"/>
      <point x="861" y="418" type="line"/>
      <point x="859" y="412" type="line"/>
    </contour>
  </outline>
</glyph>
<glyph name="fiveeighths" format="2">
  <advance width="829"/>
  <unicode hex="215D"/>
  <outline>
    <contour>
      <point x="884" y="698" type="line"/>
      <point x="896" y="698" type="line"/>
      <point x="117" y="0" type="line"/>
      <point x="104" y="0" type="line"/>
    </contour>
    <contour>
      <point x="366" y="415" type="curve" smooth="yes"/>
      <point x="342" y="342"/>
      <point x="271" y="272"/>
      <point x="190" y="273" type="curve" smooth="yes"/>
      <point x="133" y="273"/>
      <point x="111" y="310"/>
      <point x="101" y="360" type="curve"/>
      <point x="107" y="363" type="line"/>
      <point x="117" y="315"/>
      <point x="136" y="280"/>
      <point x="190" y="279" type="curve" smooth="yes"/>
      <point x="268" y="278"/>
      <point x="337" y="346"/>
      <point x="360" y="416" type="curve" smooth="yes"/>
      <point x="378" y="470"/>
      <point x="364" y="536"/>
      <point x="297" y="539" type="curve" smooth="yes"/>
      <point x="244" y="542"/>
      <point x="197" y="506"/>
      <point x="157" y="476" type="curve"/>
      <point x="172" y="494" type="line"/>
      <point x="203" y="524"/>
      <point x="253" y="547"/>
      <point x="297" y="545" type="curve" smooth="yes"/>
      <point x="368" y="542"/>
      <point x="385" y="473"/>
    </contour>
    <contour>
      <point x="289" y="691" type="line"/>
      <point x="172" y="494" type="line"/>
      <point x="155" y="476" type="line"/>
      <point x="286" y="697" type="line"/>
      <point x="472" y="698" type="line"/>
      <point x="470" y="692" type="line"/>
    </contour>
    <contour>
      <point x="627" y="326" type="curve" smooth="yes"/>
      <point x="644" y="377"/>
      <point x="705" y="426"/>
      <point x="760" y="425" type="curve" smooth="yes"/>
      <point x="814" y="424"/>
      <point x="841" y="372"/>
      <point x="825" y="324" type="curve" smooth="yes"/>
      <point x="808" y="273"/>
      <point x="745" y="220"/>
      <point x="690" y="222" type="curve" smooth="yes"/>
      <point x="636" y="223"/>
      <point x="612" y="279"/>
    </contour>
    <contour>
      <point x="633" y="326" type="curve" smooth="yes"/>
      <point x="618" y="283"/>
      <point x="640" y="228"/>
      <point x="690" y="226" type="curve" smooth="yes"/>
      <point x="741" y="224"/>
      <point x="803" y="277"/>
      <point x="819" y="324" type="curve" smooth="yes"/>
      <point x="834" y="370"/>
      <point x="811" y="417"/>
      <point x="760" y="419" type="curve" smooth="yes"/>
      <point x="708" y="421"/>
      <point x="649" y="374"/>
    </contour>
    <contour>
      <point x="543" y="112" type="curve" smooth="yes"/>
      <point x="563" y="169"/>
      <point x="628" y="223"/>
      <point x="690" y="222" type="curve" smooth="yes"/>
      <point x="751" y="221"/>
      <point x="779" y="164"/>
      <point x="763" y="110" type="curve" smooth="yes"/>
      <point x="745" y="49"/>
      <point x="678" y="-7"/>
      <point x="613" y="-5" type="curve" smooth="yes"/>
      <point x="548" y="-3"/>
      <point x="523" y="55"/>
    </contour>
    <contour>
      <point x="549" y="111" type="curve" smooth="yes"/>
      <point x="530" y="58"/>
      <point x="551" y="2"/>
      <point x="613" y="1" type="curve" smooth="yes"/>
      <point x="675" y="-1"/>
      <point x="739" y="53"/>
      <point x="757" y="111" type="curve" smooth="yes"/>
      <point x="773" y="161"/>
      <point x="749" y="216"/>
      <point x="691" y="218" type="curve" smooth="yes"/>
      <point x="631" y="220"/>
      <point x="569" y="165"/>
    </contour>
  </outline>
</glyph>
<glyph name="summation" format="2">
  <advance width="600"/>
  <unicode hex="2211"/>
  <outline>
    <contour>
      <point x="30" y="0" type="line"/>
      <point x="318" y="352" type="line"/>
      <point x="264" y="700" type="line"/>
      <point x="664" y="700" type="line"/>
      <point x="662" y="692" type="line"/>
      <point x="276" y="692" type="line"/>
      <point x="327" y="350" type="line"/>
      <point x="48" y="8" type="line"/>
      <point x="433" y="8" type="line"/>
      <point x="430" y="0" type="line"/>
    </contour>
  </outline>
</glyph>
<glyph name="uni2215" format="2">
  <advance width="446"/>
  <unicode hex="2215"/>
  <outline>
    <contour>
      <point x="607" y="699" type="line"/>
      <point x="619" y="698" type="line"/>
      <point x="-81" y="-149" type="line"/>
      <point x="-93" y="-148" type="line"/>
    </contour>
  </outline>
</glyph>
<glyph name="uni2219" format="2">
  <advance width="244"/>
  <unicode hex="2219"/>
  <outline>
    <contour>
      <point x="211" y="449" type="curve" smooth="yes"/>
      <point x="212" y="453"/>
      <point x="220" y="460"/>
      <point x="225" y="460" type="curve" smooth="yes"/>
      <point x="230" y="460"/>
      <point x="233" y="454"/>
      <point x="232" y="449" type="curve" smooth="yes"/>
      <point x="231" y="445"/>
      <point x="223" y="438"/>
      <point x="218" y="438" type="curve" smooth="yes"/>
      <point x="213" y="438"/>
      <point x="210" y="444"/>
    </contour>
  </outline>
</glyph>
<glyph name="radical" format="2">
  <advance width="600"/>
  <unicode hex="221A"/>
  <outline>
    <contour>
      <point x="124" y="-113" type="line"/>
      <point x="510" y="694" type="line"/>
      <point x="501" y="691" type="line"/>
      <point x="663" y="691" type="line"/>
      <point x="666" y="700" type="line"/>
      <point x="502" y="700" type="line"/>
      <point x="125" y="-90" type="line"/>
      <point x="135" y="-88" type="line"/>
      <point x="146" y="234" type="line"/>
      <point x="43" y="213" type="line"/>
      <point x="44" y="205" type="line"/>
      <point x="144" y="226" type="line"/>
      <point x="137" y="230" type="line"/>
    </contour>
  </outline>
</glyph>
<glyph name="integral" format="2">
  <advance width="600"/>
  <unicode hex="222B"/>
  <outline>
    <contour>
      <point x="35" y="-200" type="curve" smooth="yes"/>
      <point x="5" y="-200"/>
      <point x="-15" y="-186"/>
      <point x="-34" y="-153" type="curve"/>
      <point x="-26" y="-146" type="line"/>
      <point x="-7" y="-178"/>
      <point x="9" y="-190"/>
      <point x="35" y="-190" type="curve" smooth="yes"/>
      <point x="89" y="-190"/>
      <point x="143" y="-141"/>
      <point x="173" y="-63" type="curve" smooth="yes"/>
      <point x="451" y="650" type="line" smooth="yes"/>
      <point x="482" y="732"/>
      <point x="542" y="787"/>
      <point x="600" y="787" type="curve" smooth="yes"/>
      <point x="630" y="787"/>
      <point x="651" y="773"/>
      <point x="670" y="740" type="curve"/>
      <point x="661" y="733" type="line"/>
      <point x="642" y="765"/>
      <point x="626" y="777"/>
      <point x="600" y="777" type="curve" smooth="yes"/>
      <point x="546" y="777"/>
      <point x="492" y="728"/>
      <point x="462" y="650" type="curve" smooth="yes"/>
      <point x="184" y="-63" type="line" smooth="yes"/>
      <point x="153" y="-145"/>
      <point x="93" y="-200"/>
    </contour>
  </outline>
</glyph>
<glyph name="approxequal" format="2">
  <advance width="600"/>
  <unicode hex="2248"/>
  <outline>
    <contour>
      <point x="452" y="322" type="curve" smooth="yes"/>
      <point x="516" y="322"/>
      <point x="575" y="386"/>
      <point x="583" y="468" type="curve"/>
      <point x="574" y="471" type="line"/>
      <point x="564" y="387"/>
      <point x="511" y="332"/>
      <point x="453" y="332" type="curve" smooth="yes"/>
      <point x="413" y="332"/>
      <point x="390" y="348"/>
      <point x="361" y="400" type="curve" smooth="yes"/>
      <point x="333" y="451"/>
      <point x="302" y="477"/>
      <point x="259" y="477" type="curve" smooth="yes"/>
      <point x="191" y="477"/>
      <point x="122" y="406"/>
      <point x="119" y="331" type="curve"/>
      <point x="128" y="328" type="line"/>
      <point x="134" y="406"/>
      <point x="199" y="467"/>
      <point x="255" y="467" type="curve" smooth="yes"/>
      <point x="298" y="467"/>
      <point x="324" y="449"/>
      <point x="355" y="393" type="curve" smooth="yes"/>
      <point x="383" y="343"/>
      <point x="409" y="322"/>
    </contour>
    <contour>
      <point x="385" y="122" type="curve" smooth="yes"/>
      <point x="449" y="122"/>
      <point x="508" y="186"/>
      <point x="516" y="268" type="curve"/>
      <point x="507" y="271" type="line"/>
      <point x="497" y="187"/>
      <point x="441" y="131"/>
      <point x="386" y="131" type="curve" smooth="yes"/>
      <point x="346" y="131"/>
      <point x="324" y="148"/>
      <point x="295" y="200" type="curve" smooth="yes"/>
      <point x="267" y="251"/>
      <point x="235" y="277"/>
      <point x="192" y="277" type="curve" smooth="yes"/>
      <point x="124" y="277"/>
      <point x="55" y="206"/>
      <point x="52" y="131" type="curve"/>
      <point x="61" y="128" type="line"/>
      <point x="67" y="206"/>
      <point x="132" y="267"/>
      <point x="188" y="267" type="curve" smooth="yes"/>
      <point x="231" y="267"/>
      <point x="258" y="249"/>
      <point x="289" y="193" type="curve" smooth="yes"/>
      <point x="317" y="143"/>
      <point x="342" y="122"/>
    </contour>
  </outline>
</glyph>
<glyph name="lessequal" format="2">
  <advance width="600"/>
  <unicode hex="2264"/>
  <outline>
    <contour>
      <point x="-5" y="0" type="line"/>
      <point x="505" y="0" type="line"/>
      <point x="508" y="10" type="line"/>
      <point x="-2" y="10" type="line"/>
    </contour>
    <contour>
      <point x="530" y="75" type="line"/>
      <point x="533" y="85" type="line"/>
      <point x="108" y="287" type="line"/>
      <point x="669" y="490" type="line"/>
      <point x="672" y="500" type="line"/>
      <point x="92" y="290" type="line"/>
      <point x="90" y="284" type="line"/>
    </contour>
  </outline>
</glyph>
<glyph name="greaterequal" format="2">
  <advance width="600"/>
  <unicode hex="2265"/>
  <outline>
    <contour>
      <point x="-5" y="0" type="line"/>
      <point x="505" y="0" type="line"/>
      <point x="508" y="10" type="line"/>
      <point x="-2" y="10" type="line"/>
    </contour>
    <contour>
      <point x="20" y="75" type="line"/>
      <point x="600" y="285" type="line"/>
      <point x="602" y="291" type="line"/>
      <point x="162" y="500" type="line"/>
      <point x="159" y="490" type="line"/>
      <point x="584" y="288" type="line"/>
      <point x="23" y="85" type="line"/>
    </contour>
  </outline>
</glyph>
<glyph name="lozenge" format="2">
  <advance width="600"/>
  <unicode hex="25CA"/>
  <outline>
    <contour>
      <point x="241" y="15" type="line"/>
      <point x="549" y="356" type="line"/>
      <point x="469" y="696" type="line"/>
      <point x="149" y="356" type="line"/>
    </contour>
    <contour>
      <point x="248" y="40" type="line"/>
      <point x="164" y="354" type="line"/>
      <point x="461" y="669" type="line"/>
      <point x="535" y="356" type="line"/>
    </contour>
  </outline>
</glyph>
<glyph name="uniFF14" format="2">
  <advance width="517"/>
  <unicode hex="FF14"/>
  <outline>
    <contour>
      <point x="16" y="141" type="line"/>
      <point x="28" y="149" type="line"/>
      <point x="372" y="150" type="line"/>
      <point x="376" y="150" type="line"/>
      <point x="483" y="150" type="line"/>
      <point x="479" y="140" type="line"/>
    </contour>
    <contour>
      <point x="27" y="142" type="line"/>
      <point x="16" y="141" type="line"/>
      <point x="567" y="699" type="line"/>
      <point x="570" y="699" type="line"/>
      <point x="329" y="0" type="line"/>
      <point x="318" y="0" type="line"/>
      <point x="368" y="142" type="line"/>
      <point x="369" y="147" type="line"/>
      <point x="547" y="663" type="line"/>
    </contour>
  </outline>
</glyph>
<glyph name="uniFF15" format="2">
  <advance width="517"/>
  <unicode hex="FF15"/>
  <outline>
    <contour>
      <point x="482" y="230" type="curve" smooth="yes"/>
      <point x="442" y="105"/>
      <point x="325" y="-10"/>
      <point x="188" y="-9" type="curve" smooth="yes"/>
      <point x="95" y="-9"/>
      <point x="52" y="51"/>
      <point x="41" y="137" type="curve"/>
      <point x="50" y="142" type="line"/>
      <point x="61" y="60"/>
      <point x="99" y="2"/>
      <point x="189" y="1" type="curve" smooth="yes"/>
      <point x="320" y="0"/>
      <point x="432" y="111"/>
      <point x="472" y="230" type="curve" smooth="yes"/>
      <point x="503" y="321"/>
      <point x="477" y="432"/>
      <point x="365" y="435" type="curve" smooth="yes"/>
      <point x="276" y="438"/>
      <point x="198" y="383"/>
      <point x="133" y="330" type="curve"/>
      <point x="161" y="360" type="line" smooth="yes"/>
      <point x="213" y="411"/>
      <point x="292" y="447"/>
      <point x="366" y="445" type="curve" smooth="yes"/>
      <point x="484" y="442"/>
      <point x="513" y="327"/>
    </contour>
    <contour>
      <point x="352" y="689" type="line"/>
      <point x="161" y="360" type="line"/>
      <point x="133" y="329" type="line"/>
      <point x="348" y="699" type="line"/>
      <point x="659" y="700" type="line"/>
      <point x="656" y="690" type="line"/>
    </contour>
  </outline>
</glyph>
<glyph name="aring.alt" format="2">
  <advance width="509"/>
  <outline>
    <contour>
      <point x="528" y="459" type="line"/>
      <point x="538" y="459" type="line"/>
      <point x="378" y="0" type="line"/>
      <point x="369" y="0" type="line"/>
    </contour>
    <contour>
      <point x="66" y="230" type="curve" smooth="yes"/>
      <point x="105" y="346"/>
      <point x="215" y="472"/>
      <point x="348" y="469" type="curve" smooth="yes"/>
      <point x="474" y="466"/>
      <point x="485" y="324"/>
      <point x="454" y="230" type="curve" smooth="yes"/>
      <point x="417" y="120"/>
      <point x="313" y="-8"/>
      <point x="186" y="-9" type="curve" smooth="yes"/>
      <point x="53" y="-10"/>
      <point x="32" y="128"/>
    </contour>
    <contour>
      <point x="76" y="230" type="curve" smooth="yes"/>
      <point x="43" y="133"/>
      <point x="62" y="-1"/>
      <point x="190" y="1" type="curve" smooth="yes"/>
      <point x="310" y="3"/>
      <point x="413" y="125"/>
      <point x="449" y="230" type="curve" smooth="yes"/>
      <point x="479" y="318"/>
      <point x="467" y="455"/>
      <point x="349" y="459" type="curve" smooth="yes"/>
      <point x="222" y="464"/>
      <point x="114" y="341"/>
    </contour>
    <contour>
      <point x="307" y="631" type="curve" smooth="yes"/>
      <point x="324" y="682"/>
      <point x="382" y="730"/>
      <point x="437" y="729" type="curve" smooth="yes"/>
      <point x="491" y="728"/>
      <point x="516" y="677"/>
      <point x="500" y="629" type="curve" smooth="yes"/>
      <point x="483" y="578"/>
      <point x="425" y="530"/>
      <point x="370" y="531" type="curve" smooth="yes"/>
      <point x="316" y="532"/>
      <point x="291" y="583"/>
    </contour>
    <contour>
      <point x="316" y="630" type="curve" smooth="yes"/>
      <point x="302" y="588"/>
      <point x="323" y="543"/>
      <point x="371" y="541" type="curve" smooth="yes"/>
      <point x="420" y="539"/>
      <point x="476" y="585"/>
      <point x="491" y="630" type="curve" smooth="yes"/>
      <point x="505" y="672"/>
      <point x="484" y="717"/>
      <point x="436" y="719" type="curve" smooth="yes"/>
      <point x="387" y="721"/>
      <point x="331" y="675"/>
    </contour>
  </outline>
</glyph>
